<svg xmlns="http://www.w3.org/2000/svg" width="194" height="56" fill="none" xmlns:v="https://vecta.io/nano"><g clip-path="url(#A)"><path d="M193.455 50.387a5.66 5.66 0 0 1-.425 2.15 5.62 5.62 0 0 1-1.207 1.822 5.57 5.57 0 0 1-1.808 1.216c-.676.282-1.4.426-2.131.426H5.578c-1.478.002-2.895-.589-3.941-1.642S.002 51.877 0 50.387V5.621C.002 4.13.59 2.7 1.636 1.646S4.1 0 5.578 0h182.304c.732 0 1.457.145 2.132.428s1.291.697 1.808 1.218.928 1.142 1.207 1.824.424 1.413.424 2.151l.002 44.766z" fill="#242427"/><g fill="#fff"><path d="M43.225 27.69c-.043-4.742 3.883-7.048 4.063-7.156-2.224-3.241-5.67-3.684-6.881-3.719-2.895-.305-5.702 1.732-7.177 1.732-1.504 0-3.774-1.702-6.222-1.652-3.149.049-6.095 1.871-7.711 4.702-3.334 5.771-.848 14.252 2.347 18.917 1.598 2.286 3.465 4.836 5.91 4.746 2.391-.097 3.285-1.523 6.17-1.523 2.859 0 3.698 1.523 6.191 1.465 2.566-.04 4.182-2.295 5.724-4.6 1.847-2.617 2.588-5.198 2.618-5.33-.059-.021-4.983-1.901-5.033-7.582zm-4.709-13.943c1.286-1.608 2.166-3.796 1.922-6.015-1.861.082-4.189 1.287-5.53 2.86-1.186 1.386-2.245 3.657-1.972 5.793 2.091.156 4.238-1.055 5.58-2.638zm39.345 31.185h-3.342l-1.831-5.751h-6.363l-1.744 5.751h-3.254l6.305-19.578h3.894l6.333 19.578zm-5.724-8.163l-1.655-5.112c-.175-.522-.505-1.752-.987-3.688h-.059l-.93 3.688-1.628 5.112h5.259zm21.908.931c0 2.401-.652 4.299-1.957 5.692-1.168 1.24-2.621 1.86-4.353 1.86-1.87 0-3.215-.666-4.032-2.002v7.407h-3.137V35.455l-.116-4.64h2.759l.175 2.238h.059c1.046-1.686 2.634-2.529 4.765-2.529 1.666 0 3.056.658 4.169 1.974s1.669 3.053 1.669 5.202zm-3.196.115c0-1.374-.309-2.507-.93-3.4a3.21 3.21 0 0 0-2.731-1.393c-.774 0-1.477.259-2.106.769s-1.042 1.187-1.235 2.02a4.09 4.09 0 0 0-.146.955v2.355c0 1.025.315 1.892.945 2.601s1.448 1.061 2.454 1.061c1.182 0 2.101-.458 2.759-1.365s.989-2.111.989-3.603zm19.438-.115c0 2.401-.652 4.299-1.957 5.692a5.74 5.74 0 0 1-4.355 1.86c-1.87 0-3.215-.666-4.032-2.002v7.407h-3.137V35.455l-.116-4.64h2.759l.175 2.238h.059c1.045-1.686 2.633-2.529 4.765-2.529 1.664 0 3.055.658 4.17 1.974s1.669 3.053 1.669 5.202zm-3.198.115c0-1.374-.31-2.507-.931-3.4-.679-.928-1.587-1.393-2.728-1.393-.775 0-1.478.259-2.109.769a3.56 3.56 0 0 0-1.233 2.02c-.096.388-.148.705-.148.955v2.355c0 1.025.317 1.892.944 2.601s1.448 1.061 2.457 1.061c1.183 0 2.103-.458 2.759-1.365s.989-2.111.989-3.603zm21.356 1.626c0 1.667-.582 3.022-1.74 4.068-1.275 1.142-3.054 1.714-5.335 1.714-2.107 0-3.796-.406-5.071-1.22l.726-2.614c1.376.815 2.887 1.221 4.532 1.221 1.183 0 2.103-.268 2.759-.799s.991-1.245.991-2.133c0-.796-.276-1.462-.816-2.005s-1.44-1.046-2.701-1.509c-3.429-1.278-5.145-3.148-5.145-5.608 0-1.606.606-2.922 1.816-3.95s2.814-1.54 4.809-1.54c1.782 0 3.267.31 4.445.93l-.787 2.557c-1.109-.6-2.362-.9-3.762-.9-1.107 0-1.975.272-2.596.814-.523.484-.787 1.074-.787 1.774 0 .772.301 1.414.902 1.917.52.463 1.471.968 2.845 1.509 1.687.68 2.926 1.471 3.719 2.38.799.909 1.196 2.043 1.196 3.395zm10.4-6.271h-3.458v6.854c0 1.743.609 2.613 1.83 2.613.561 0 1.026-.047 1.394-.146l.086 2.382c-.618.231-1.431.347-2.439.347-1.239 0-2.208-.378-2.907-1.134s-1.046-2.023-1.046-3.806v-7.116h-2.06V30.81h2.06v-2.585l3.082-.93v3.515h3.458v2.36zm15.571 4.588c0 2.17-.621 3.952-1.86 5.345-1.296 1.434-3.021 2.149-5.171 2.149-2.075 0-3.724-.687-4.954-2.059s-1.846-3.108-1.846-5.199c0-2.188.636-3.979 1.903-5.373s2.98-2.092 5.13-2.092c2.072 0 3.736.689 4.996 2.063 1.203 1.333 1.802 3.054 1.802 5.167zm-3.252.072c0-1.293-.279-2.402-.84-3.331-.658-1.121-1.6-1.681-2.82-1.681-1.256 0-2.22.56-2.876 1.681-.562.928-.842 2.057-.842 3.389 0 1.295.28 2.407.842 3.332.678 1.121 1.624 1.681 2.85 1.681 1.199 0 2.14-.572 2.819-1.709.577-.95.867-2.067.867-3.363zm13.454-4.256a5.46 5.46 0 0 0-.989-.087c-1.103 0-1.957.415-2.557 1.251-.521.735-.783 1.665-.783 2.788v7.407h-3.137v-9.671l-.091-4.444h2.732l.115 2.701h.087c.332-.928.853-1.677 1.568-2.238.655-.49 1.45-.755 2.268-.756a5.13 5.13 0 0 1 .784.057l.003 2.992zm14.031 3.632a7.3 7.3 0 0 1-.115 1.423h-9.411c.035 1.395.491 2.463 1.365 3.198.793.656 1.819.986 3.079.986 1.393 0 2.664-.221 3.808-.666l.491 2.176c-1.336.583-2.913.872-4.734.872-2.189 0-3.908-.644-5.159-1.93s-1.873-3.017-1.873-5.184c0-2.127.581-3.9 1.745-5.314 1.219-1.509 2.865-2.264 4.937-2.264 2.035 0 3.576.755 4.622 2.264.829 1.196 1.245 2.679 1.245 4.44zm-2.991-.813c.022-.931-.184-1.733-.61-2.411-.543-.874-1.378-1.309-2.498-1.309-1.026 0-1.862.425-2.497 1.278-.523.678-.833 1.493-.929 2.439l6.534.003zM65.42 18.433a20.06 20.06 0 0 1-2.256-.115V8.853c.879-.136 1.767-.203 2.656-.2 3.598 0 5.255 1.77 5.255 4.655 0 3.328-1.957 5.125-5.655 5.125zm.527-8.566c-.486 0-.899.029-1.242.1v7.195c.185.029.541.043 1.042.043 2.357 0 3.699-1.342 3.699-3.854 0-2.241-1.214-3.484-3.499-3.484zm10.292 8.638c-2.028 0-3.342-1.514-3.342-3.569 0-2.142 1.342-3.669 3.457-3.669 1.998 0 3.342 1.442 3.342 3.556 0 2.168-1.385 3.682-3.457 3.682zm.059-6.111c-1.114 0-1.828 1.042-1.828 2.498 0 1.428.728 2.47 1.813 2.47s1.813-1.114 1.813-2.499c0-1.412-.714-2.469-1.798-2.469zm14.961-.984l-2.17 6.938h-1.414l-.899-3.013a22.83 22.83 0 0 1-.558-2.241h-.029c-.113.756-.328 1.514-.556 2.241l-.956 3.013h-1.429l-2.042-6.938h1.585l.786 3.298.471 2.227h.029c.113-.584.299-1.314.571-2.213l.986-3.312h1.257l.943 3.241.558 2.285h.041c.1-.713.258-1.471.471-2.285l.843-3.241 1.514-.002zm7.99 6.938h-1.542v-3.984c0-1.227-.471-1.842-1.399-1.842-.914 0-1.542.786-1.542 1.699v4.127h-1.542v-4.955l-.057-1.985h1.357l.072 1.071h.043c.415-.741 1.257-1.212 2.2-1.212 1.457 0 2.413 1.114 2.413 2.926l-.002 4.155zm4.252 0h-1.543V8.226h1.543v10.121zm5.623.157c-2.026 0-3.342-1.514-3.342-3.569 0-2.142 1.342-3.669 3.455-3.669 2 0 3.342 1.442 3.342 3.556.002 2.168-1.384 3.682-3.455 3.682zm.057-6.111c-1.113 0-1.827 1.042-1.827 2.498 0 1.428.73 2.47 1.811 2.47s1.813-1.114 1.813-2.499c.002-1.412-.711-2.469-1.797-2.469zm9.479 5.954l-.112-.799h-.041c-.471.643-1.159.956-2.03.956-1.243 0-2.126-.871-2.126-2.042 0-1.712 1.485-2.598 4.055-2.598v-.128c0-.914-.484-1.371-1.44-1.371-.684 0-1.285.172-1.813.515l-.314-1.014c.642-.4 1.443-.6 2.383-.6 1.813 0 2.728.956 2.728 2.87v2.555c0 .7.031 1.243.1 1.657l-1.39-.002zm-.212-3.456c-1.713 0-2.573.415-2.573 1.399 0 .728.443 1.084 1.058 1.084.785 0 1.515-.599 1.515-1.412v-1.071zm8.991 3.456l-.072-1.114h-.043c-.443.841-1.188 1.271-2.228 1.271-1.673 0-2.912-1.471-2.912-3.541 0-2.17 1.284-3.698 3.039-3.698.928 0 1.586.313 1.957.943h.031V8.226h1.543v8.252l.058 1.87h-1.373zm-.228-4.082c0-.971-.643-1.799-1.625-1.799-1.143 0-1.842 1.014-1.842 2.441 0 1.399.725 2.357 1.811 2.357.97 0 1.656-.843 1.656-1.842v-1.156zm11.33 4.24c-2.026 0-3.34-1.514-3.34-3.569 0-2.142 1.342-3.669 3.455-3.669 2 0 3.342 1.442 3.342 3.556.001 2.168-1.383 3.682-3.457 3.682zm.058-6.111c-1.113 0-1.827 1.042-1.827 2.498 0 1.428.729 2.47 1.812 2.47s1.813-1.114 1.813-2.499c.003-1.412-.711-2.469-1.798-2.469zm11.692 5.954h-1.543v-3.984c0-1.227-.471-1.842-1.4-1.842-.913 0-1.54.786-1.54 1.699v4.127h-1.544v-4.955l-.057-1.985h1.356l.072 1.071h.043c.414-.741 1.257-1.214 2.199-1.214 1.456 0 2.414 1.114 2.414 2.926v4.156zm10.376-5.782h-1.697v3.369c0 .858.298 1.286.898 1.286a3.02 3.02 0 0 0 .684-.072l.043 1.171c-.299.115-.699.172-1.196.172-1.216 0-1.943-.671-1.943-2.427v-3.498h-1.012v-1.156h1.012v-1.271l1.514-.458v1.727h1.697v1.158zm8.164 5.782h-1.541v-3.954c0-1.242-.469-1.87-1.399-1.87-.799 0-1.544.543-1.544 1.642v4.182h-1.54V8.226h1.54v4.168h.031c.486-.756 1.189-1.128 2.087-1.128 1.468 0 2.366 1.142 2.366 2.956v4.127zm8.364-3.098h-4.628c.03 1.314.899 2.055 2.187 2.055.684 0 1.314-.115 1.87-.328l.24 1.071c-.656.285-1.429.428-2.328.428-2.17 0-3.455-1.371-3.455-3.497s1.316-3.726 3.281-3.726c1.774 0 2.886 1.314 2.886 3.298a2.98 2.98 0 0 1-.053.699zm-1.414-1.099c0-1.071-.54-1.827-1.526-1.827-.886 0-1.586.771-1.686 1.827h3.212z"/></g></g><defs><clipPath id="A"><path fill="#fff" d="M0 0h193.455v56H0z"/></clipPath></defs></svg>