<svg xmlns="http://www.w3.org/2000/svg" width="501" height="507" fill="none" xmlns:v="https://vecta.io/nano"><style><![CDATA[.B{stroke-width:3.929}.C{stroke:#0e0e11}.D{stroke-linecap:round}.E{fill:#fff}.F{stroke-linejoin:round}.G{fill-rule:evenodd}]]></style><path d="M206 32c-12.15 0-22 9.85-22 22v106.034h.122v87.353c0 12.379 6.351 22.687 13.509 34.306 9.525 15.459 20.48 33.24 19.805 61.307H332c12.15 0 22-9.85 22-22V54c0-12.15-9.85-22-22-22H206z" class="E G"/><g class="B C"><path d="M184.122 224.264V53.182c0-11.934 9.674-21.609 21.609-21.609h2.392M353.69 278.218V53.182c0-11.934-9.675-21.609-21.609-21.609h-61.097m-53.039 0h27.502m9.822 0h5.893" class="D"/><rect x="225.802" y="47.289" width="62.862" height="11.787" rx="5.893"/><rect x="300.451" y="47.289" width="11.787" height="11.787" rx="5.893"/></g><path d="M220.461 140.336c-1.413-5.271 1.806-10.648 7.11-11.931 11.331-2.742 20.007-4.989 29.907-10.308 7.735-4.156 17.127-3.914 24.764.418 9.105 5.165 17.685 7.537 29.67 10.119 5.506 1.186 8.961 6.702 7.431 12.122-5.571 19.73-11.803 36.265-23.569 51.9-5.877 7.809-15.166 15.393-23.24 23.038-2.493 2.36-6.482 2.274-8.883-.18-7.499-7.667-16.141-15.191-21.44-22.858-11.035-15.966-16.45-32.548-21.75-52.32z" fill="#00c7be"/><g class="D"><path d="M255.269 160.243l10.283 12.855c.777.97 2.248.985 3.043.03l23.016-27.618" stroke="#fff" stroke-width="7.858"/><g class="B C"><path d="M295.454 343.304l-10.72 24.851a58.93 58.93 0 0 1-26.172 28.546l-7.663 4.126c-12.401 6.677-23.219 15.942-31.724 27.168l-11.768 15.535m9.258-89.949c6.851-57.379-32.543-75.363-32.543-106.194v-67.656c0-10.878-8.819-19.697-19.697-19.697h0c-10.879 0-19.698 8.819-19.698 19.697v50.528l-12.533 116.719a37.32 37.32 0 0 1-8.033 19.414L86.92 412.673"/><path d="M143.296 247.66h10.805m-11.787 14.734h14.733" class="F"/></g></g><path d="M220.947 453.781L91.63 379.273 4 505h184l32.947-51.219z" fill="#8280ed" stroke="#8280ed" class="B"/><g class="C B"><path d="M152.39 176.19l-2.871-1.766a2.58 2.58 0 0 0-3.606.94 7.11 7.11 0 0 0-.9 3.509l.248 34.41c8.137 0 14.733-6.597 14.733-14.733v-8.751a15.98 15.98 0 0 0-7.604-13.609z" class="E F"/><path d="M217.522 343.305h114.559c11.934 0 21.609-9.675 21.609-21.609v-45.191" class="D"/></g><path d="M466.452 351.207l-22.844-85.254c-2.325-6.47-10.448-18.479-24.346-14.755s-14.928 18.185-13.706 24.951l-3.99-14.89c-2.325-6.47-10.448-18.479-24.346-14.755s-14.928 18.186-13.706 24.951l-2.217-8.272c-1.497-6.692-8.297-19.056-23.518-14.977s-16.031 18.481-14.534 25.173l-20.748-77.433a19.7 19.7 0 0 0-24.124-13.928 19.7 19.7 0 0 0-13.928 24.124l29.701 110.848c-10.051 2.693-16.015 13.024-13.322 23.075l14.233 53.118c1.927 7.192 7.084 13.08 13.959 15.937l30.075 12.5c6.875 2.857 12.033 8.745 13.959 15.937L371.17 505h66.79l40.235-10.702-19.123-71.366c-1.045-3.902-1.084-7.985-.138-11.874.539-2.214 1.2-4.408 1.503-6.666l4.65-34.645c.303-2.259.964-4.452 1.503-6.667a23.98 23.98 0 0 0-.138-11.873z" class="E"/><path d="M309.662 374.895l-15.516-57.905m0 0c-10.051 2.693-16.015 13.024-13.322 23.075l14.233 53.118c1.927 7.192 7.084 13.08 13.959 15.937l30.075 12.5c6.875 2.857 12.033 8.745 13.959 15.937L371.17 505h66.79l40.235-10.702-19.123-71.366c-1.045-3.902-1.084-7.985-.138-11.874.539-2.214 1.2-4.408 1.503-6.666l4.65-34.645c.303-2.259.964-4.452 1.503-6.667a23.98 23.98 0 0 0-.138-11.873l-22.844-85.254c-2.325-6.47-10.448-18.479-24.346-14.755s-14.928 18.185-13.706 24.951l-3.99-14.89c-2.325-6.47-10.448-18.479-24.346-14.755s-14.928 18.186-13.706 24.951l-2.217-8.272c-1.497-6.692-8.297-19.056-23.518-14.977s-16.031 18.481-14.534 25.173m-29.099 43.611l-29.701-110.848a19.7 19.7 0 0 1 13.928-24.124 19.7 19.7 0 0 1 24.124 13.928l20.748 77.433m0 0l9.397 35.069" class="B C D"/><path d="M466.452 351.207l-22.844-85.254c-2.325-6.47-10.448-18.479-24.346-14.755s-14.928 18.185-13.706 24.951l-3.99-14.89c-2.325-6.47-10.448-18.479-24.346-14.755s-14.928 18.186-13.706 24.951l-2.217-8.272c-1.497-6.692-8.297-19.056-23.518-14.977s-16.031 18.481-14.534 25.173l-20.748-77.433a19.7 19.7 0 0 0-24.124-13.928 19.7 19.7 0 0 0-13.928 24.124l29.701 110.848c-10.051 2.693-16.015 13.024-13.322 23.075l14.233 53.118c4.767 17.791 29.302 22.314 44.034 28.437 6.875 2.857 12.033 8.745 13.959 15.937L371.17 505h66.79l40.235-10.702-19.123-71.366c-1.045-3.902-1.084-7.985-.138-11.874 4.438-18.245 12.461-41.405 7.518-59.851z" fill="#ffd8d6"/><g class="B C"><g class="D"><path d="M309.662 374.895l-15.516-57.905m0 0c-10.051 2.693-16.015 13.024-13.322 23.075l14.233 53.118c4.767 17.791 29.302 22.314 44.034 28.437 6.875 2.857 12.033 8.745 13.959 15.937L371.17 505h66.79l40.235-10.702-19.123-71.366c-1.045-3.902-1.084-7.985-.138-11.874 4.438-18.245 12.461-41.405 7.518-59.851l-22.844-85.254c-2.325-6.47-10.448-18.479-24.346-14.755s-14.928 18.185-13.706 24.951l-3.99-14.89c-2.325-6.47-10.448-18.479-24.346-14.755s-14.928 18.186-13.706 24.951l-2.217-8.272c-1.497-6.692-8.297-19.056-23.518-14.977s-16.031 18.481-14.534 25.173m-29.099 43.611l-29.701-110.848a19.7 19.7 0 0 1 13.928-24.124 19.7 19.7 0 0 1 24.124 13.928l20.748 77.433m0 0l9.397 35.069"/><path d="M370.607 297.926l-9.31-34.743c-2.815-10.508-13.838-17.571-24.345-14.756s-16.522 14.444-13.707 24.952l9.31 34.743"/></g><path d="M297.19 209.307l-2.62-10.848c-1.659-6.191-8.152-10.351-14.342-8.693s-9.733 8.509-8.074 14.699l2.574 10.658a3.93 3.93 0 0 0 4.836 2.873l14.823-3.972a3.93 3.93 0 0 0 2.803-4.717z" class="E"/><g class="D"><path d="M412.206 300.966l-10.64-39.707c-2.815-10.508-13.838-17.571-24.346-14.755s-16.522 14.443-13.706 24.951l8.866 33.089"/><path d="M448.041 282.497l-4.433-16.544c-2.815-10.508-13.838-17.571-24.346-14.756s-16.522 14.444-13.706 24.952l4.433 16.544"/></g></g><path d="M478.455 435.712L346.1 471.177 355.163 505h142.712l-19.42-69.288z" fill="#8280ed" stroke="#8280ed" class="B"/><g class="E"><path d="M60.791 111.403c6.688-.589 12.161-13.554 12.161-17.68 0 4.125 7.904 17.091 13.377 17.68-5.472.59-12.161 10.019-13.377 17.68-.608-7.661-5.472-17.09-12.161-17.68zm29.466 31.431c3.601-.328 6.548-7.53 6.548-9.822 0 2.292 4.256 9.494 7.203 9.822-2.947.327-6.548 5.566-7.203 9.822-.327-4.256-2.947-9.495-6.548-9.822z" class="C F B"/><path d="M409.995 181.406l-2.708 1.354c-4.014-.328-6.56-5.164-3.824-8.742l.204-.267a5.1 5.1 0 0 1 7.047-1.026c3.09 2.248 2.699 6.971-.719 8.681z"/></g><path d="M395.885 188.461l14.11-7.055c3.418-1.71 3.809-6.433.719-8.681h0a5.1 5.1 0 0 0-7.047 1.026l-.204.267c-3.138 4.103.671 9.859 5.674 8.577l23.09-5.921m-62.915-155.03l18.662-14.733m-28.484 5.893L365.383 2m11.787 30.449l11.787-3.929" class="B C D F"/><path d="M38.527 11.545A10.48 10.48 0 0 0 28.05 22.022c0 .697-.535 1.31-1.232 1.31h-2.697a10.48 10.48 0 0 0-10.477 10.477 10.48 10.48 0 0 0 10.477 10.477H97.46a10.48 10.48 0 0 0 10.477-10.477A10.48 10.48 0 0 0 97.46 23.331H76.428c-.697 0-1.232-.612-1.232-1.31a10.48 10.48 0 0 0-10.477-10.477H38.527z" class="E G"/><path d="M30.015 22.022c0-4.701 3.811-8.512 8.513-8.512V9.58c-6.871 0-12.441 5.57-12.441 12.441h3.929zm-5.893 3.274h2.697v-3.929h-2.697v3.929zm-8.513 8.513c0-4.701 3.811-8.512 8.513-8.512v-3.929c-6.871 0-12.441 5.57-12.441 12.441h3.929zm8.513 8.513c-4.701 0-8.513-3.811-8.513-8.513H11.68c0 6.871 5.57 12.441 12.441 12.441v-3.929zm73.339 0H24.121v3.929H97.46v-3.929zm8.512-8.513c0 4.701-3.811 8.513-8.512 8.513v3.929c6.871 0 12.441-5.57 12.441-12.441h-3.929zm-8.512-8.512c4.701 0 8.512 3.811 8.512 8.513h3.929c0-6.871-5.57-12.441-12.441-12.441v3.929zm-21.032 0H97.46v-3.929H76.428v3.929zM64.719 13.509c4.701 0 8.513 3.811 8.513 8.513h3.929c0-6.871-5.57-12.441-12.441-12.441v3.929zm-26.192 0h26.192V9.58H38.527v3.929zm37.901 7.858a.78.78 0 0 1 .569.242c.108.117.164.263.164.413h-3.929c0 1.623 1.261 3.274 3.196 3.274v-3.929zm-50.342.655c0-.15.056-.296.164-.413a.78.78 0 0 1 .569-.242v3.929c1.935 0 3.196-1.651 3.196-3.274h-3.929z" fill="#0e0e11"/><path d="M454.509 74.435a10.48 10.48 0 0 0-10.477 10.477c0 .528-.411.982-.939.982h-21.652c-5.967 0-10.805 4.837-10.805 10.804s4.838 10.805 10.805 10.805h37.324c5.967 0 10.804-4.837 10.804-10.805 0-.698.536-1.31 1.235-1.31h9.897a10.48 10.48 0 0 0 10.477-10.477 10.48 10.48 0 0 0-10.477-10.477h-26.192z" class="E G"/><path d="M445.996 84.912c0-4.701 3.811-8.513 8.513-8.513V72.47c-6.872 0-12.442 5.57-12.442 12.441h3.929zm-24.555 2.947h21.652V83.93h-21.652v3.929zm-8.84 8.84a8.84 8.84 0 0 1 8.84-8.84V83.93a12.77 12.77 0 0 0-12.769 12.769h3.929zm8.84 8.84a8.84 8.84 0 0 1-8.84-8.84h-3.929a12.77 12.77 0 0 0 12.769 12.769v-3.929zm37.324 0h-37.324v3.929h37.324v-3.929zm8.84-8.84a8.84 8.84 0 0 1-8.84 8.84v3.929a12.77 12.77 0 0 0 12.769-12.769h-3.929zm13.096-3.274h-9.897v3.929h9.897v-3.929zm8.513-8.513c0 4.701-3.812 8.513-8.513 8.513v3.929c6.871 0 12.441-5.57 12.441-12.441h-3.928zm-8.513-8.513c4.701 0 8.513 3.811 8.513 8.513h3.928c0-6.871-5.57-12.441-12.441-12.441v3.929zm-26.192 0h26.192V72.47h-26.192v3.929zm17.025 20.299a.61.61 0 0 1-.165.415c-.115.125-.316.24-.565.24v-3.929c-1.932 0-3.199 1.645-3.199 3.274h3.929zm-29.467-11.787a1 1 0 0 1 1.026-.982v3.929c1.728 0 2.903-1.453 2.903-2.947h-3.929z" fill="#0e0e11"/><path d="M291.611 266.322l16.697-4.911m-11.786 13.751l11.786-3.929" class="B C D F"/></svg>