<svg xmlns="http://www.w3.org/2000/svg" width="518" height="470" fill="none" xmlns:v="https://vecta.io/nano"><style><![CDATA[.B{fill:#fff}.C{fill:#302db0}.D{stroke-width:3.747}.E{stroke:#0e0e11}.F{stroke-linecap:round}.G{stroke-linejoin:round}]]></style><path d="M44.584 420.064l115.219-118.966 69.319 52.457 258.541-249.173m0 0H384.621m103.042 0v104.915" stroke="#00c7be" stroke-width="59.952" class="F G"/><rect width="198.589" height="324.766" rx="20.608" transform="matrix(-1 0 .292372 .956305 199.146 25.6958)" class="B"/><g class="D E"><path d="M87.674 25.696h7.494m-16.861 0H59.572m-9.367 0H33.343 21.166c-11.382 0-17.911 8.824-14.583 19.708l82.902 271.159c3.328 10.884 15.252 19.708 26.634 19.708H273.49c11.382 0 17.911-8.824 14.583-19.708L205.172 45.404c-3.328-10.884-15.252-19.708-26.634-19.708h-74.002" class="F"/><rect width="59.952" height="11.241" rx="5.62" transform="matrix(-1 0 .292372 .956305 145.451 40.0286)"/><rect width="11.241" height="11.241" rx="5.62" transform="matrix(-1 0 .292372 .956305 74.2581 40.0286)"/></g><circle cx="19.672" cy="19.672" r="19.672" transform="matrix(-1 0 .292372 .956305 190.573 255.023)" fill="#e1e0f9"/><path d="M185.364 279.928c.21.688.223 1.319.039 1.892s-.524 1.032-1.018 1.376-1.102.516-1.821.516h-5.755c-.64 0-1.293-.143-1.96-.43l-.039-.028c-.759-.325-1.419-.784-1.98-1.376-.566-.612-.955-1.262-1.165-1.95l-3.602-11.781c-.216-.707-.232-1.348-.048-1.921a2.61 2.61 0 0 1 1.018-1.376c.515-.344 1.132-.516 1.851-.516h5.755c.18 0 .429.029.746.086.332.038.693.143 1.086.315h.03c.778.325 1.461.794 2.048 1.405.581.593.985 1.261 1.213 2.007l3.602 11.781zm-9.195-11.839c.011-.095-.013-.172-.07-.229-.064-.076-.145-.115-.245-.115h-3.927c-.1 0-.188.039-.265.115-.056.077-.067.172-.032.287l2.279 7.453c.023.076.078.124.163.143s.137-.009.154-.086l1.943-7.568zm5.628 11.839l-2.34-7.653c-.029-.096-.087-.153-.173-.172-.066-.019-.117.009-.153.086l-1.963 7.797c.003.076.037.153.1.229s.135.115.215.115h4.047c.1 0 .178-.038.234-.115.051-.095.062-.191.033-.287z" class="C"/><circle cx="19.672" cy="19.672" r="19.672" transform="matrix(-1 0 .292372 .956305 90.921 88.4026)" class="B"/><path d="M82.899 115.773c.111.363.078.679-.1.946-.164.249-.436.373-.815.373h-.839c-.38 0-.747-.124-1.103-.373-.342-.267-.568-.583-.679-.946l-3.988-13.043c-.023-.076-.078-.124-.164-.143-.072-.038-.122-.038-.15 0l-.318.43c-.158.267-.437.401-.837.401a1.47 1.47 0 0 1-.575-.115 1.74 1.74 0 0 1-.749-.487c-.21-.229-.353-.468-.429-.717l-.342-1.118c-.111-.363-.078-.678.101-.946l1.451-1.92c.105-.115.225-.21.362-.287a1.02 1.02 0 0 1 .505-.115h1.829c.38 0 .727.124 1.043.373.336.248.562.564.679.946l5.118 16.741z" class="C"/><circle cx="19.672" cy="19.672" r="19.672" transform="matrix(-1 0 .292372 .956305 190.216 88.4026)" class="B"/><path d="M185.007 113.308c.21.688.223 1.318.039 1.892a2.61 2.61 0 0 1-1.018 1.376c-.495.344-1.102.516-1.821.516h-5.755c-.72 0-1.442-.172-2.167-.516a6.32 6.32 0 0 1-1.859-1.376c-.535-.574-.908-1.204-1.118-1.892l-.263-.86c-.111-.363-.075-.669.109-.917.198-.268.487-.402.867-.402h.839c.36 0 .71.134 1.052.402.356.248.589.554.7.917l.263.86c.029.095.098.191.208.286.123.077.234.115.334.115h5.756c.1 0 .178-.038.234-.115.051-.095.062-.191.033-.286l-1.166-3.813a.48.48 0 0 0-.504-.372h-5.755c-.38 0-.747-.125-1.103-.373-.342-.268-.568-.583-.679-.946l-.245-.803c-.111-.363-.075-.669.109-.917.204-.248.495-.373.875-.373h5.756c.099 0 .178-.038.234-.114.051-.096.062-.191.033-.287l-1.157-3.784c-.082-.267-.253-.401-.513-.401h-5.755c-.1 0-.188.038-.265.114-.056.077-.067.172-.032.287l.237.774c.111.363.064.669-.14.917-.183.249-.455.373-.815.373h-.839c-.38 0-.748-.124-1.103-.373-.336-.248-.559-.554-.671-.917l-.236-.774c-.216-.707-.232-1.347-.048-1.92a2.61 2.61 0 0 1 1.018-1.376c.515-.344 1.132-.516 1.851-.516h5.755c.72 0 1.432.172 2.137.516s1.324.803 1.859 1.376.911 1.213 1.127 1.92l1.157 3.784c.093.306.147.612.16.917s-.006.602-.058.889c-.101.191-.04.392.184.602.222.268.419.554.593.86a4.56 4.56 0 0 1 .4.917l1.166 3.813z" class="C"/><circle cx="19.672" cy="19.672" r="19.672" transform="matrix(-1 0 .292372 .956305 139.632 88.4026)" class="B"/><path d="M135.176 115.773c.112.363.068.679-.13.946-.184.249-.466.373-.845.373h-8.333c-.72 0-1.442-.172-2.167-.516a6.32 6.32 0 0 1-1.859-1.376c-.535-.574-.908-1.204-1.118-1.892l-.798-2.609c-.239-.783-.221-1.51.054-2.178s.771-1.137 1.489-1.405l6.405-2.58c.182-.057.239-.201.168-.43l-.788-2.58c-.082-.267-.253-.401-.513-.401h-5.755c-.1 0-.188.038-.265.114-.056.077-.067.172-.032.287l.237.774c.111.363.064.669-.14.917-.183.249-.465.373-.845.373h-.809c-.38 0-.748-.124-1.103-.373a1.77 1.77 0 0 1-.671-.917l-.236-.774c-.216-.707-.232-1.347-.048-1.92a2.61 2.61 0 0 1 1.018-1.376c.515-.344 1.132-.516 1.851-.516h5.755c.72 0 1.432.172 2.136.516s1.325.803 1.86 1.376.911 1.213 1.127 1.92l.789 2.58c.245.803.23 1.538-.045 2.207s-.762 1.137-1.459 1.405l-6.435 2.58c-.183.057-.242.191-.178.401l.798 2.609c.029.095.098.191.208.286.123.077.234.115.334.115h8.334a1.77 1.77 0 0 1 1.782 1.319l.227.745z" class="C"/><circle cx="19.672" cy="19.672" r="19.672" transform="matrix(-1 0 .292372 .956305 207.196 143.943)" class="B"/><path d="M201.987 168.848c.211.688.224 1.319.039 1.892s-.524 1.032-1.018 1.376-1.101.516-1.821.516h-5.755c-.719 0-1.442-.172-2.166-.516a6.31 6.31 0 0 1-1.86-1.376c-.535-.573-.907-1.204-1.118-1.892l-3.602-11.782c-.216-.707-.232-1.347-.047-1.92s.523-1.032 1.018-1.376c.514-.344 1.131-.516 1.85-.516h5.756c.719 0 1.431.172 2.136.516a6.29 6.29 0 0 1 1.859 1.376 4.88 4.88 0 0 1 1.127 1.92l.219.717c.111.363.068.678-.13.946-.178.268-.457.401-.837.401h-.809c-.38 0-.75-.133-1.112-.401-.342-.268-.568-.583-.679-.946l-.219-.717c-.082-.267-.253-.401-.512-.401h-5.756a.36.36 0 0 0-.264.115c-.057.076-.068.172-.033.286l.929 3.039a.48.48 0 0 0 .504.373h5.785c.72 0 1.432.172 2.136.516.699.325 1.316.774 1.851 1.347s.911 1.213 1.127 1.921l1.402 4.586zm-3.567 0l-1.402-4.586c-.082-.268-.253-.402-.513-.402h-5.785c-.26 0-.352.124-.276.373l1.411 4.615a.66.66 0 0 0 .208.287c.123.076.235.114.335.114h5.755c.1 0 .178-.038.235-.114.051-.096.061-.191.032-.287z" class="C"/><circle cx="25.814" cy="25.814" r="25.814" transform="matrix(-1 0 .292372 .956305 160.959 138.069)" fill="#b9f0ed"/><circle cx="19.672" cy="19.672" r="19.672" transform="matrix(-1 0 .292372 .956305 156.612 143.943)" fill="#00c7be"/><path d="M147.275 155.346c.123.402.079.717-.13.946-.184.249-.466.373-.846.373h-8.363c-.26 0-.351.124-.276.373l.929 3.038c.082.268.253.402.513.402h5.785c.74 0 1.452.172 2.136.516a6.29 6.29 0 0 1 1.86 1.376c.529.554.902 1.184 1.118 1.892l1.402 4.586c.21.688.223 1.319.039 1.892s-.524 1.032-1.018 1.376-1.101.516-1.821.516h-5.755c-.72 0-1.442-.172-2.166-.516a6.31 6.31 0 0 1-1.86-1.376c-.535-.573-.908-1.204-1.118-1.892l-.631-2.064c-.111-.363-.074-.669.109-.917.198-.268.487-.401.867-.401h.839c.36 0 .711.133 1.052.401.356.248.589.554.7.917l.631 2.064c.029.096.099.191.208.287.123.076.235.114.335.114h5.755c.1 0 .178-.038.235-.114.05-.096.061-.191.032-.287l-1.402-4.586c-.03-.096-.096-.182-.199-.258-.109-.096-.214-.144-.314-.144h-8.363a1.65 1.65 0 0 1-1.082-.401c-.35-.229-.583-.535-.7-.917l-2.436-7.97c-.117-.382-.084-.697.1-.946.204-.248.496-.372.875-.372h10.942c.379 0 .737.124 1.073.372.355.249.592.564.709.946l.236.774z" class="C"/><circle cx="19.672" cy="19.672" r="19.672" transform="matrix(-1 0 .292372 .956305 107.901 143.943)" class="B"/><path d="M102.337 167.587c.105.344.059.65-.139.917-.184.249-.466.373-.846.373h-.689c-.28 0-.382.124-.306.372l.631 2.064c.111.363.078.679-.1.946-.184.249-.466.373-.846.373h-.809c-.38 0-.747-.124-1.103-.373-.342-.267-.568-.583-.679-.946l-.631-2.064a.48.48 0 0 0-.504-.372h-5.965c-.38 0-.747-.124-1.103-.373-.342-.267-.565-.573-.67-.917l-1.104-3.612c-.269-.879-.316-1.72-.142-2.523l1.091-4.472c.108-.496.442-.745 1.001-.745h.899c.52 0 .974.21 1.362.631.403.401.554.831.454 1.29l-1.148 4.873c-.055.344-.038.659.049.946l.351 1.147c.07.229.245.344.525.344h3.357c.26 0 .355-.115.285-.344l-3.225-10.55c-.117-.382-.083-.697.1-.946.204-.248.496-.372.875-.372h.809c.38 0 .737.124 1.073.372s.562.564.679.946l3.225 10.55c.07.229.245.344.525.344h.689c.38 0 .741.133 1.082.401.356.248.589.554.7.917l.246.803z" class="C"/><circle cx="19.672" cy="19.672" r="19.672" transform="matrix(-1 0 .292372 .956305 224.176 199.483)" class="B"/><path d="M218.968 224.389c.21.688.223 1.318.038 1.892a2.6 2.6 0 0 1-1.018 1.376c-.494.344-1.101.516-1.82.516h-5.756c-.719 0-1.441-.172-2.166-.516-.705-.344-1.324-.803-1.859-1.376s-.908-1.204-1.118-1.892l-.263-.86c-.111-.363-.075-.669.109-.918.198-.267.487-.401.866-.401h.84c.359 0 .71.134 1.052.401.355.249.589.555.7.918l.263.86c.029.095.098.191.207.286.124.077.235.115.335.115h5.755c.1 0 .179-.038.235-.115.051-.095.062-.191.032-.286l-.929-3.039c-.076-.248-.233-.373-.473-.373h-5.786c-.719 0-1.441-.172-2.166-.516a6.3 6.3 0 0 1-1.859-1.376c-.541-.592-.917-1.232-1.127-1.92l-1.393-4.558c-.217-.707-.232-1.347-.048-1.921s.524-1.032 1.018-1.376c.514-.344 1.131-.516 1.851-.516h5.755c.719 0 1.432.172 2.136.516a6.31 6.31 0 0 1 1.86 1.376c.535.574.91 1.214 1.126 1.921l3.603 11.782zm-5.767-7.196l-1.403-4.586c-.081-.268-.252-.401-.512-.401h-5.755c-.1 0-.188.038-.265.114-.057.077-.067.172-.032.287l1.393 4.558c.035.114.104.21.208.286.123.077.235.115.335.115h5.785c.24 0 .322-.124.246-.373z" class="C"/><circle cx="19.672" cy="19.672" r="19.672" transform="matrix(-1 0 .292372 .956305 173.592 199.483)" class="B"/><path d="M168.383 224.389c.211.688.224 1.318.039 1.892s-.524 1.032-1.018 1.376-1.101.516-1.82.516h-5.756c-.719 0-1.441-.172-2.166-.516-.705-.344-1.324-.803-1.859-1.376s-.908-1.204-1.118-1.892l-1.28-4.186a3.79 3.79 0 0 1-.169-.946c-.014-.305.011-.582.075-.831.096-.21.032-.42-.193-.631-.227-.286-.425-.573-.592-.86a4.54 4.54 0 0 1-.401-.917l-1.042-3.411c-.217-.707-.233-1.347-.048-1.921s.524-1.032 1.018-1.376c.514-.344 1.131-.516 1.851-.516h5.755c.719 0 1.431.172 2.136.516a6.31 6.31 0 0 1 1.86 1.376c.535.574.91 1.214 1.126 1.921l1.043 3.411a3.53 3.53 0 0 1 .152.889 3.33 3.33 0 0 1-.067.86c-.089.229-.022.449.202.659.216.249.41.526.584.831a4.73 4.73 0 0 1 .409.946l1.279 4.186zm-6.126-8.371l-1.043-3.411c-.081-.268-.252-.401-.512-.401h-5.755c-.1 0-.189.038-.265.114-.057.077-.067.172-.032.287l1.043 3.411c.029.096.095.182.198.258.124.077.235.115.335.115h5.755c.26 0 .352-.124.276-.373zm2.559 8.371l-1.279-4.186c-.082-.267-.253-.401-.513-.401h-5.755c-.1 0-.188.038-.265.115-.056.076-.067.172-.032.286l1.28 4.186c.029.095.098.191.207.286.123.077.235.115.335.115h5.755c.1 0 .179-.038.235-.115.051-.095.062-.191.032-.286z" class="C"/><circle cx="19.672" cy="19.672" r="19.672" transform="matrix(-1 0 .292372 .956305 124.882 199.483)" class="B"/><path d="M116.448 213.84c.099.324.161.659.187 1.003a5.39 5.39 0 0 1 .028.975l-1.213 11.523a.84.84 0 0 1-.326.602c-.173.153-.409.23-.709.23h-.869a1.73 1.73 0 0 1-1.315-.574c-.376-.382-.539-.783-.488-1.204l1.237-11.839c.005-.114 0-.229-.015-.344-.021-.134-.049-.258-.084-.372l-.386-1.262c-.076-.248-.234-.372-.474-.372h-5.815c-.26 0-.352.124-.276.372l.246.803c.111.363.064.669-.14.917-.183.249-.455.373-.815.373h-.839c-.38 0-.748-.124-1.103-.373-.336-.248-.559-.554-.67-.917l-1-3.268c-.116-.382-.083-.698.101-.946.204-.248.496-.373.875-.373h10.941c.38 0 .738.125 1.074.373.355.248.592.564.708.946l1.14 3.727z" class="C"/><g fill="#d5f0ef"><path d="M386.359 333.884c4.496 8.993 12.489 18.735 15.924 22.482l-68.382 44.963-24.355-29.975-41.217-25.292-93.674-59.015c-13.115-9.368-18.735-14.988-16.862-25.292 1.499-8.244 11.866-7.182 16.862-5.621l61.825 25.292c1.249-4.683 2.061-18.172-4.684-34.659-24.355-59.952-71.192-70.256-86.18-74.003s-19.672-22.482-3.747-22.482c33.723.75 70.88 22.17 85.243 32.786 17.986-6.744 42.466 2.811 52.458 8.431 7.182-1.249 26.041-.749 44.027 11.241 32.224 19.484 43.402 62.45 44.963 81.497 2.811 12.177 9.368 38.406 17.799 49.647z"/><path d="M192.453 227.095l9.367-24.355c15.738 12.739 26.229 33.098 29.039 43.09-1.249 3.435-5.058 10.491-10.304 11.241s-20.92-8.431-28.102-13.115v-16.861z"/></g><path d="M265.519 218.665c-13.115-16.55-52.083-52.833-103.042-65.572-35.596-10.305-34.659 8.43-22.482 16.861s44.964 3.747 81.497 55.268c12.244 18.044 15.206 39.228 15.2 51.162-.001 2.517-2.563 4.079-4.892 3.124l-52.461-21.5c-5.621-1.874-15.778-6.984-20.609 1.873-5.62 10.304 6.245 19.36 11.241 23.419l88.054 57.141c15.612 8.431 48.148 26.791 53.394 32.786s18.423 23.106 24.355 30.912m70.256-43.09c-6.557-7.494-21.17-26.229-27.165-41.216-7.494-18.735-13.708-61.87-22.482-78.687-11.241-21.545-34.66-52.457-77.75-49.647" class="D E F"/><path d="M413.524 348.872l99.295 118.966H364.813l-44.026-57.141 92.737-61.825z" fill="#8280ed" stroke="#8280ed" class="D"/><path d="M306.735 216.791c-12.802-15.925-46.837-44.964-80.559-33.723m-19.672 95.548l-5.62 11.241m11.241-5.621l-3.747 7.494m-6.558-88.99l-8.868 23.056a7.5 7.5 0 0 0-.499 2.69v11.708c0 2.874 1.643 5.494 4.23 6.746l19.322 9.349c3.196 1.547 7.039.638 9.204-2.176l5.65-7.346m-11.241-22.482c-2.185 2.81-8.243 7.869-14.987 5.621m-43.091-76.814c-.312 2.811-2.248 8.431-7.493 8.431-6.558 0-15.925-5.62-12.178-10.304" class="E F D"/><path d="M178.491 279.035l6.273-10.456c.593-.989.166-2.288-.88-2.775-5.144-2.394-13.359-6.632-16.723-1.922-4.214 5.899 3.449 12.051 8.668 15.727a1.86 1.86 0 0 0 2.662-.574z" class="D E"/><path fill-rule="evenodd" d="M479.857 272.996c-5.519 0-9.992 4.473-9.992 9.992 0 .503-.391.936-.895.936h-20.65c-5.691 0-10.304 4.613-10.304 10.304s4.613 10.304 10.304 10.304h35.596c5.691 0 10.304-4.613 10.304-10.304 0-.665.511-1.249 1.177-1.249h9.44c5.518 0 9.991-4.473 9.991-9.991s-4.473-9.992-9.991-9.992h-24.98z" class="B"/><path d="M471.738 282.988a8.12 8.12 0 0 1 8.119-8.119v-3.747a11.87 11.87 0 0 0-11.866 11.866h3.747zm-23.418 2.81h20.65v-3.747h-20.65v3.747zm-8.431 8.43c0-4.656 3.775-8.43 8.431-8.43v-3.747a12.18 12.18 0 0 0-12.178 12.177h3.747zm8.431 8.431c-4.656 0-8.431-3.775-8.431-8.431h-3.747a12.18 12.18 0 0 0 12.178 12.178v-3.747zm35.596 0H448.32v3.747h35.596v-3.747zm8.431-8.431c0 4.656-3.775 8.431-8.431 8.431v3.747a12.18 12.18 0 0 0 12.178-12.178h-3.747zm12.49-3.122h-9.44v3.747h9.44v-3.747zm8.118-8.118a8.12 8.12 0 0 1-8.118 8.118v3.747c6.553 0 11.865-5.312 11.865-11.865h-3.747zm-8.118-8.119a8.12 8.12 0 0 1 8.118 8.119h3.747a11.87 11.87 0 0 0-11.865-11.866v3.747zm-24.98 0h24.98v-3.747h-24.98v3.747zm16.237 19.359a.58.58 0 0 1-.157.396c-.11.119-.302.229-.54.229v-3.747c-1.842 0-3.05 1.569-3.05 3.122h3.747zm-28.103-11.24c0-.418.338-.937.979-.937v3.747c1.648 0 2.768-1.386 2.768-2.81h-3.747z" fill="#0e0e11"/><path d="M181.348 438.799l13.457-6.729c3.26-1.629 3.633-6.135.685-8.278h0a4.86 4.86 0 0 0-6.72.978l-.195.255c-2.992 3.913.64 9.403 5.411 8.179l22.022-5.646m-3.644-405.445l16.912-15.106m-10.224 25.788l11.119-3.758m-26.663-16.083l5.63-10.426" class="D E F G"/><path d="M254.414 61.292c0-22.763 18.454-41.217 41.217-41.217h.937c22.246 0 40.28 18.034 40.28 40.28s-18.034 40.28-40.28 40.28h-24.784a10.85 10.85 0 0 0-4.544.998l-17.831 8.229c-1.55.716-3.171-.845-2.514-2.421l6.659-15.983c.568-1.363.86-2.824.86-4.3V61.292z" class="B D E"/><g clip-path="url(#A)" class="D"><path d="M279.578 42.731c-.577-1.713-2.688-2.526-4.142-1.454l-1.716 1.265c-.69.509-1.363 1.053-1.888 1.732-5.198 6.731-1.647 19.674 8.414 29.734s23.003 13.611 29.734 8.413c.679-.524 1.223-1.197 1.732-1.888l1.266-1.716c1.072-1.454.259-3.565-1.454-4.142-2.431-.819-4.976-1.996-7.548-3.503-1.053-.617-2.356-.388-3.123.561-.523.646-1.095 1.245-1.74 1.543-4.696 2.168-20.598-12.718-18.19-18.129.303-.682.931-1.293 1.601-1.854.916-.768 1.122-2.047.52-3.079-1.49-2.551-2.654-5.074-3.466-7.484z" class="E"/><g stroke="#000"><circle cx="304.096" cy="50.953" r="11.102"/><path d="M302.986 46.513v4.441a1.11 1.11 0 0 0 1.11 1.11h4.441" class="F G"/></g></g><defs><clipPath id="A"><path transform="translate(261.908 33.19)" d="M0 0h59.951v59.951H0z" class="B"/></clipPath></defs></svg>