<svg width="518" height="470" viewBox="0 0 518 470" fill="none" xmlns="http://www.w3.org/2000/svg">
<path d="M44.584 420.064L159.803 301.098L229.122 353.555L487.663 104.382M487.663 104.382H384.621M487.663 104.382V209.297" stroke="#00C7BE" stroke-width="59.9515" stroke-linecap="round" stroke-linejoin="round"/>
<rect width="198.589" height="324.766" rx="20.6083" transform="matrix(-1 0 0.292372 0.956305 199.146 25.6958)" fill="white"/>
<path d="M87.6742 25.6958L95.1681 25.6958M78.3068 25.6958L59.5719 25.6958M50.2045 25.6958L33.3432 25.6958H21.1655C9.78385 25.6958 3.2548 34.5193 6.58248 45.4036L89.4842 316.563C92.8118 327.447 104.736 336.271 116.118 336.271H273.49C284.872 336.271 291.401 327.447 288.073 316.563L205.172 45.4036C201.844 34.5193 189.92 25.6958 178.538 25.6958L104.536 25.6958" stroke="#0E0E11" stroke-width="3.74697" stroke-linecap="round"/>
<rect width="59.9515" height="11.2409" rx="5.62045" transform="matrix(-1 0 0.292372 0.956305 145.451 40.0286)" stroke="#0E0E11" stroke-width="3.74697"/>
<rect width="11.2409" height="11.2409" rx="5.62045" transform="matrix(-1 0 0.292372 0.956305 74.2581 40.0286)" stroke="#0E0E11" stroke-width="3.74697"/>
<circle cx="19.6716" cy="19.6716" r="19.6716" transform="matrix(-1 0 0.292372 0.956305 190.573 255.023)" fill="#E1E0F9"/>
<path d="M185.364 279.928C185.574 280.616 185.587 281.247 185.403 281.82C185.218 282.394 184.879 282.852 184.385 283.196C183.89 283.54 183.283 283.712 182.564 283.712H176.809C176.169 283.712 175.516 283.569 174.849 283.282L174.81 283.254C174.051 282.929 173.391 282.47 172.83 281.878C172.264 281.266 171.875 280.616 171.665 279.928L168.063 268.147C167.847 267.44 167.831 266.799 168.015 266.226C168.2 265.653 168.539 265.194 169.033 264.85C169.548 264.506 170.165 264.334 170.884 264.334H176.639C176.819 264.334 177.068 264.363 177.385 264.42C177.717 264.458 178.078 264.563 178.471 264.735H178.501C179.279 265.06 179.962 265.529 180.549 266.14C181.13 266.733 181.534 267.401 181.762 268.147L185.364 279.928ZM176.169 268.089C176.18 267.994 176.156 267.917 176.099 267.86C176.035 267.784 175.954 267.745 175.854 267.745H171.927C171.827 267.745 171.739 267.784 171.662 267.86C171.606 267.937 171.595 268.032 171.63 268.147L173.909 275.6C173.932 275.676 173.987 275.724 174.072 275.743C174.158 275.762 174.209 275.734 174.226 275.657L176.169 268.089ZM181.797 279.928L179.457 272.275C179.428 272.179 179.37 272.122 179.284 272.103C179.218 272.084 179.167 272.112 179.131 272.189L177.168 279.986C177.171 280.062 177.205 280.139 177.268 280.215C177.331 280.292 177.403 280.33 177.483 280.33H181.53C181.63 280.33 181.708 280.292 181.764 280.215C181.815 280.12 181.826 280.024 181.797 279.928Z" fill="#302DB0"/>
<circle cx="19.6716" cy="19.6716" r="19.6716" transform="matrix(-1 0 0.292372 0.956305 90.921 88.4026)" fill="white"/>
<path d="M82.8988 115.773C83.0099 116.136 82.9764 116.452 82.7984 116.719C82.6345 116.968 82.3627 117.092 81.9831 117.092H81.1437C80.764 117.092 80.3963 116.968 80.0406 116.719C79.699 116.452 79.4727 116.136 79.3617 115.773L75.3741 102.73C75.3507 102.654 75.2961 102.606 75.2103 102.587C75.1387 102.549 75.0887 102.549 75.0605 102.587L74.7423 103.017C74.5843 103.284 74.3054 103.418 73.9058 103.418C73.7059 103.418 73.5144 103.38 73.3311 103.303C73.0421 103.208 72.7926 103.045 72.5826 102.816C72.3726 102.587 72.2297 102.348 72.1537 102.099L71.8119 100.981C71.7009 100.618 71.7344 100.303 71.9124 100.035L73.3635 98.1149C73.4684 98.0002 73.589 97.9047 73.7255 97.8282C73.862 97.7518 74.0302 97.7136 74.23 97.7136H76.0586C76.4382 97.7136 76.786 97.8378 77.1017 98.0862C77.4375 98.3346 77.6638 98.65 77.7806 99.0322L82.8988 115.773Z" fill="#302DB0"/>
<circle cx="19.6716" cy="19.6716" r="19.6716" transform="matrix(-1 0 0.292372 0.956305 190.216 88.4026)" fill="white"/>
<path d="M185.007 113.308C185.217 113.996 185.23 114.626 185.046 115.2C184.861 115.773 184.522 116.232 184.028 116.576C183.533 116.92 182.926 117.092 182.207 117.092H176.452C175.732 117.092 175.01 116.92 174.285 116.576C173.581 116.232 172.961 115.773 172.426 115.2C171.891 114.626 171.518 113.996 171.308 113.308L171.045 112.448C170.934 112.085 170.97 111.779 171.154 111.531C171.352 111.263 171.641 111.129 172.021 111.129H172.86C173.22 111.129 173.57 111.263 173.912 111.531C174.268 111.779 174.501 112.085 174.612 112.448L174.875 113.308C174.904 113.403 174.973 113.499 175.083 113.594C175.206 113.671 175.317 113.709 175.417 113.709H181.173C181.273 113.709 181.351 113.671 181.407 113.594C181.458 113.499 181.469 113.403 181.44 113.308L180.274 109.495C180.198 109.247 180.03 109.123 179.77 109.123H174.015C173.635 109.123 173.268 108.998 172.912 108.75C172.57 108.482 172.344 108.167 172.233 107.804L171.988 107.001C171.877 106.638 171.913 106.332 172.097 106.084C172.301 105.836 172.592 105.711 172.972 105.711H178.728C178.827 105.711 178.906 105.673 178.962 105.597C179.013 105.501 179.024 105.406 178.995 105.31L177.838 101.526C177.756 101.259 177.585 101.125 177.325 101.125H171.57C171.47 101.125 171.382 101.163 171.305 101.239C171.249 101.316 171.238 101.411 171.273 101.526L171.51 102.3C171.621 102.663 171.574 102.969 171.37 103.217C171.187 103.466 170.915 103.59 170.555 103.59H169.716C169.336 103.59 168.968 103.466 168.613 103.217C168.277 102.969 168.054 102.663 167.942 102.3L167.706 101.526C167.49 100.819 167.474 100.179 167.658 99.6055C167.843 99.0322 168.182 98.5735 168.676 98.2295C169.191 97.8855 169.808 97.7136 170.527 97.7136H176.282C177.002 97.7136 177.714 97.8855 178.419 98.2295C179.123 98.5735 179.743 99.0322 180.278 99.6055C180.813 100.179 181.189 100.819 181.405 101.526L182.562 105.31C182.655 105.616 182.709 105.922 182.722 106.227C182.736 106.533 182.716 106.829 182.664 107.116C182.563 107.307 182.624 107.508 182.848 107.718C183.07 107.986 183.267 108.272 183.441 108.578C183.614 108.884 183.748 109.189 183.841 109.495L185.007 113.308Z" fill="#302DB0"/>
<circle cx="19.6716" cy="19.6716" r="19.6716" transform="matrix(-1 0 0.292372 0.956305 139.632 88.4026)" fill="white"/>
<path d="M135.176 115.773C135.288 116.136 135.244 116.452 135.046 116.719C134.862 116.968 134.58 117.092 134.201 117.092H125.868C125.148 117.092 124.426 116.92 123.701 116.576C122.997 116.232 122.377 115.773 121.842 115.2C121.307 114.626 120.934 113.996 120.724 113.308L119.926 110.699C119.687 109.916 119.705 109.189 119.98 108.521C120.255 107.852 120.751 107.384 121.469 107.116L127.874 104.536C128.056 104.479 128.113 104.335 128.042 104.106L127.254 101.526C127.172 101.259 127.001 101.125 126.741 101.125H120.986C120.886 101.125 120.798 101.163 120.721 101.239C120.665 101.316 120.654 101.411 120.689 101.526L120.926 102.3C121.037 102.663 120.99 102.969 120.786 103.217C120.603 103.466 120.321 103.59 119.941 103.59H119.132C118.752 103.59 118.384 103.466 118.029 103.217C117.693 102.969 117.469 102.663 117.358 102.3L117.122 101.526C116.906 100.819 116.89 100.179 117.074 99.6055C117.259 99.0322 117.598 98.5735 118.092 98.2295C118.607 97.8855 119.224 97.7136 119.943 97.7136H125.698C126.418 97.7136 127.13 97.8855 127.834 98.2295C128.539 98.5735 129.159 99.0322 129.694 99.6055C130.229 100.179 130.605 100.819 130.821 101.526L131.61 104.106C131.855 104.909 131.84 105.644 131.565 106.313C131.29 106.982 130.803 107.45 130.106 107.718L123.671 110.298C123.488 110.355 123.429 110.489 123.493 110.699L124.291 113.308C124.32 113.403 124.389 113.499 124.499 113.594C124.622 113.671 124.733 113.709 124.833 113.709H133.167C133.546 113.709 133.904 113.833 134.24 114.082C134.595 114.33 134.832 114.646 134.949 115.028L135.176 115.773Z" fill="#302DB0"/>
<circle cx="19.6716" cy="19.6716" r="19.6716" transform="matrix(-1 0 0.292372 0.956305 207.196 143.943)" fill="white"/>
<path d="M201.987 168.848C202.198 169.536 202.211 170.167 202.026 170.74C201.842 171.313 201.502 171.772 201.008 172.116C200.514 172.46 199.907 172.632 199.187 172.632H193.432C192.713 172.632 191.99 172.46 191.266 172.116C190.561 171.772 189.941 171.313 189.406 170.74C188.871 170.167 188.499 169.536 188.288 168.848L184.686 157.066C184.47 156.359 184.454 155.719 184.639 155.146C184.823 154.572 185.162 154.114 185.657 153.77C186.171 153.426 186.788 153.254 187.507 153.254H193.263C193.982 153.254 194.694 153.426 195.399 153.77C196.104 154.114 196.723 154.572 197.258 155.146C197.793 155.719 198.169 156.359 198.385 157.066L198.604 157.783C198.715 158.146 198.672 158.461 198.474 158.729C198.296 158.997 198.017 159.13 197.637 159.13H196.828C196.448 159.13 196.078 158.997 195.716 158.729C195.374 158.461 195.148 158.146 195.037 157.783L194.818 157.066C194.736 156.799 194.565 156.665 194.306 156.665H188.55C188.45 156.665 188.362 156.703 188.286 156.78C188.229 156.856 188.218 156.952 188.253 157.066L189.182 160.105C189.258 160.353 189.426 160.478 189.686 160.478H195.471C196.191 160.478 196.903 160.65 197.607 160.994C198.306 161.319 198.923 161.768 199.458 162.341C199.993 162.914 200.369 163.554 200.585 164.262L201.987 168.848ZM198.42 168.848L197.018 164.262C196.936 163.994 196.765 163.86 196.505 163.86H190.72C190.46 163.86 190.368 163.984 190.444 164.233L191.855 168.848C191.885 168.944 191.954 169.039 192.063 169.135C192.186 169.211 192.298 169.249 192.398 169.249H198.153C198.253 169.249 198.331 169.211 198.388 169.135C198.439 169.039 198.449 168.944 198.42 168.848Z" fill="#302DB0"/>
<circle cx="25.8144" cy="25.8144" r="25.8144" transform="matrix(-1 0 0.292372 0.956305 160.959 138.069)" fill="#B9F0ED"/>
<circle cx="19.6716" cy="19.6716" r="19.6716" transform="matrix(-1 0 0.292372 0.956305 156.612 143.943)" fill="#00C7BE"/>
<path d="M147.275 155.346C147.398 155.748 147.354 156.063 147.145 156.292C146.961 156.541 146.679 156.665 146.299 156.665H137.936C137.676 156.665 137.585 156.789 137.66 157.038L138.589 160.076C138.671 160.344 138.842 160.478 139.102 160.478H144.887C145.627 160.478 146.339 160.65 147.023 160.994C147.728 161.338 148.348 161.796 148.883 162.37C149.412 162.924 149.785 163.554 150.001 164.262L151.403 168.848C151.613 169.536 151.626 170.167 151.442 170.74C151.258 171.313 150.918 171.772 150.424 172.116C149.929 172.46 149.323 172.632 148.603 172.632H142.848C142.128 172.632 141.406 172.46 140.682 172.116C139.977 171.772 139.357 171.313 138.822 170.74C138.287 170.167 137.914 169.536 137.704 168.848L137.073 166.784C136.962 166.421 136.999 166.115 137.182 165.867C137.38 165.599 137.669 165.466 138.049 165.466H138.888C139.248 165.466 139.599 165.599 139.94 165.867C140.296 166.115 140.529 166.421 140.64 166.784L141.271 168.848C141.3 168.944 141.37 169.039 141.479 169.135C141.602 169.211 141.714 169.249 141.814 169.249H147.569C147.669 169.249 147.747 169.211 147.804 169.135C147.854 169.039 147.865 168.944 147.836 168.848L146.434 164.262C146.404 164.166 146.338 164.08 146.235 164.004C146.126 163.908 146.021 163.86 145.921 163.86H137.558C137.158 163.86 136.798 163.726 136.476 163.459C136.126 163.23 135.893 162.924 135.776 162.542L133.34 154.572C133.223 154.19 133.256 153.875 133.44 153.626C133.644 153.378 133.936 153.254 134.315 153.254H145.257C145.636 153.254 145.994 153.378 146.33 153.626C146.685 153.875 146.922 154.19 147.039 154.572L147.275 155.346Z" fill="#302DB0"/>
<circle cx="19.6716" cy="19.6716" r="19.6716" transform="matrix(-1 0 0.292372 0.956305 107.901 143.943)" fill="white"/>
<path d="M102.337 167.587C102.442 167.931 102.396 168.237 102.198 168.504C102.014 168.753 101.732 168.877 101.352 168.877H100.663C100.383 168.877 100.281 169.001 100.357 169.249L100.988 171.313C101.099 171.676 101.066 171.992 100.888 172.259C100.704 172.508 100.422 172.632 100.042 172.632H99.2331C98.8534 172.632 98.4857 172.508 98.1299 172.259C97.7883 171.992 97.562 171.676 97.451 171.313L96.82 169.249C96.7441 169.001 96.5762 168.877 96.3164 168.877H90.3512C89.9715 168.877 89.6038 168.753 89.2481 168.504C88.9065 168.237 88.6831 167.931 88.578 167.587L87.4737 163.975C87.2049 163.096 87.1577 162.255 87.3319 161.452L88.4228 156.98C88.5306 156.484 88.8644 156.235 89.4239 156.235H90.3232C90.8428 156.235 91.2967 156.445 91.685 156.866C92.0875 157.267 92.239 157.697 92.1394 158.156L90.9914 163.029C90.9367 163.373 90.9532 163.688 91.0408 163.975L91.3914 165.122C91.4615 165.351 91.6364 165.466 91.9162 165.466H95.2735C95.5333 165.466 95.6281 165.351 95.558 165.122L92.3328 154.572C92.216 154.19 92.2495 153.875 92.4333 153.626C92.6371 153.378 92.9289 153.254 93.3086 153.254H94.1179C94.4976 153.254 94.8553 153.378 95.1911 153.626C95.5268 153.875 95.7531 154.19 95.87 154.572L99.0951 165.122C99.1652 165.351 99.3402 165.466 99.62 165.466H100.309C100.689 165.466 101.05 165.599 101.391 165.867C101.747 166.115 101.98 166.421 102.091 166.784L102.337 167.587Z" fill="#302DB0"/>
<circle cx="19.6716" cy="19.6716" r="19.6716" transform="matrix(-1 0 0.292372 0.956305 224.176 199.483)" fill="white"/>
<path d="M218.968 224.389C219.178 225.077 219.191 225.707 219.006 226.281C218.822 226.854 218.483 227.313 217.988 227.657C217.494 228.001 216.887 228.173 216.168 228.173H210.412C209.693 228.173 208.971 228.001 208.246 227.657C207.541 227.313 206.922 226.854 206.387 226.281C205.852 225.707 205.479 225.077 205.269 224.389L205.006 223.529C204.895 223.166 204.931 222.86 205.115 222.611C205.313 222.344 205.602 222.21 205.981 222.21H206.821C207.18 222.21 207.531 222.344 207.873 222.611C208.228 222.86 208.462 223.166 208.573 223.529L208.836 224.389C208.865 224.484 208.934 224.58 209.043 224.675C209.167 224.752 209.278 224.79 209.378 224.79H215.133C215.233 224.79 215.312 224.752 215.368 224.675C215.419 224.58 215.43 224.484 215.4 224.389L214.471 221.35C214.395 221.102 214.238 220.977 213.998 220.977H208.212C207.493 220.977 206.771 220.805 206.046 220.461C205.342 220.117 204.722 219.659 204.187 219.085C203.646 218.493 203.27 217.853 203.06 217.165L201.667 212.607C201.45 211.9 201.435 211.26 201.619 210.686C201.803 210.113 202.143 209.654 202.637 209.31C203.151 208.966 203.768 208.794 204.488 208.794H210.243C210.962 208.794 211.675 208.966 212.379 209.31C213.084 209.654 213.704 210.113 214.239 210.686C214.774 211.26 215.149 211.9 215.365 212.607L218.968 224.389ZM213.201 217.193L211.798 212.607C211.717 212.339 211.546 212.206 211.286 212.206H205.531C205.431 212.206 205.343 212.244 205.266 212.32C205.209 212.397 205.199 212.492 205.234 212.607L206.627 217.165C206.662 217.279 206.731 217.375 206.835 217.451C206.958 217.528 207.07 217.566 207.17 217.566H212.955C213.195 217.566 213.277 217.442 213.201 217.193Z" fill="#302DB0"/>
<circle cx="19.6716" cy="19.6716" r="19.6716" transform="matrix(-1 0 0.292372 0.956305 173.592 199.483)" fill="white"/>
<path d="M168.383 224.389C168.594 225.077 168.607 225.707 168.422 226.281C168.238 226.854 167.898 227.313 167.404 227.657C166.91 228.001 166.303 228.173 165.584 228.173H159.828C159.109 228.173 158.387 228.001 157.662 227.657C156.957 227.313 156.338 226.854 155.803 226.281C155.268 225.707 154.895 225.077 154.685 224.389L153.405 220.203C153.306 219.879 153.249 219.563 153.236 219.257C153.222 218.952 153.247 218.675 153.311 218.426C153.407 218.216 153.343 218.006 153.118 217.795C152.891 217.509 152.693 217.222 152.526 216.935C152.352 216.63 152.219 216.324 152.125 216.018L151.083 212.607C150.866 211.9 150.85 211.26 151.035 210.686C151.219 210.113 151.559 209.654 152.053 209.31C152.567 208.966 153.184 208.794 153.904 208.794H159.659C160.378 208.794 161.09 208.966 161.795 209.31C162.5 209.654 163.12 210.113 163.655 210.686C164.19 211.26 164.565 211.9 164.781 212.607L165.824 216.018C165.912 216.305 165.963 216.601 165.976 216.907C165.99 217.213 165.967 217.499 165.909 217.767C165.82 217.996 165.887 218.216 166.111 218.426C166.327 218.675 166.521 218.952 166.695 219.257C166.868 219.563 167.005 219.879 167.104 220.203L168.383 224.389ZM162.257 216.018L161.214 212.607C161.133 212.339 160.962 212.206 160.702 212.206H154.947C154.847 212.206 154.758 212.244 154.682 212.32C154.625 212.397 154.615 212.492 154.65 212.607L155.693 216.018C155.722 216.114 155.788 216.2 155.891 216.276C156.015 216.353 156.126 216.391 156.226 216.391H161.981C162.241 216.391 162.333 216.267 162.257 216.018ZM164.816 224.389L163.537 220.203C163.455 219.936 163.284 219.802 163.024 219.802H157.269C157.169 219.802 157.081 219.84 157.004 219.917C156.948 219.993 156.937 220.089 156.972 220.203L158.252 224.389C158.281 224.484 158.35 224.58 158.459 224.675C158.582 224.752 158.694 224.79 158.794 224.79H164.549C164.649 224.79 164.728 224.752 164.784 224.675C164.835 224.58 164.846 224.484 164.816 224.389Z" fill="#302DB0"/>
<circle cx="19.6716" cy="19.6716" r="19.6716" transform="matrix(-1 0 0.292372 0.956305 124.882 199.483)" fill="white"/>
<path d="M116.448 213.84C116.547 214.164 116.609 214.499 116.635 214.843C116.674 215.168 116.683 215.493 116.663 215.818L115.45 227.341C115.426 227.59 115.317 227.79 115.124 227.943C114.951 228.096 114.715 228.173 114.415 228.173H113.546C113.026 228.173 112.588 227.981 112.231 227.599C111.855 227.217 111.692 226.816 111.743 226.395L112.98 214.556C112.985 214.442 112.98 214.327 112.965 214.212C112.944 214.078 112.916 213.954 112.881 213.84L112.495 212.578C112.419 212.33 112.261 212.206 112.021 212.206H106.206C105.946 212.206 105.854 212.33 105.93 212.578L106.176 213.381C106.287 213.744 106.24 214.05 106.036 214.298C105.853 214.547 105.581 214.671 105.221 214.671H104.382C104.002 214.671 103.634 214.547 103.279 214.298C102.943 214.05 102.72 213.744 102.609 213.381L101.609 210.113C101.493 209.731 101.526 209.415 101.71 209.167C101.914 208.919 102.206 208.794 102.585 208.794H113.526C113.906 208.794 114.264 208.919 114.6 209.167C114.955 209.415 115.192 209.731 115.308 210.113L116.448 213.84Z" fill="#302DB0"/>
<path d="M386.359 333.884C390.855 342.877 398.848 352.619 402.283 356.366L333.901 401.329L309.546 371.354L268.329 346.062C241.476 329.512 185.146 294.541 174.655 287.047C161.54 277.679 155.92 272.059 157.793 261.755C159.292 253.511 169.659 254.573 174.655 256.134L236.48 281.426C237.729 276.743 238.541 263.254 231.796 246.767C207.441 186.815 160.604 176.511 145.616 172.764C130.628 169.017 125.944 150.282 141.869 150.282C175.592 151.032 212.749 172.452 227.112 183.068C245.098 176.324 269.578 185.879 279.57 191.499C286.752 190.25 305.611 190.75 323.597 202.74C355.821 222.224 366.999 265.19 368.56 284.237C371.371 296.414 377.928 322.643 386.359 333.884Z" fill="#D5F0EF"/>
<path d="M192.453 227.095L201.82 202.74C217.558 215.479 228.049 235.838 230.859 245.83C229.61 249.265 225.801 256.321 220.555 257.071C215.309 257.82 199.635 248.64 192.453 243.956V227.095Z" fill="#D5F0EF"/>
<path d="M265.519 218.665C252.404 202.115 213.436 165.832 162.477 153.093C126.881 142.788 127.818 161.523 139.995 169.954C152.173 178.385 184.959 173.701 221.492 225.222C233.736 243.266 236.698 264.45 236.692 276.384C236.691 278.901 234.129 280.463 231.8 279.508L179.339 258.008C173.718 256.134 163.561 251.024 158.73 259.881C153.11 270.185 164.975 279.241 169.971 283.3L258.025 340.441C273.637 348.872 306.173 367.232 311.419 373.227C316.665 379.222 329.842 396.333 335.774 404.139" stroke="#0E0E11" stroke-width="3.74697" stroke-linecap="round"/>
<path d="M406.03 361.049C399.473 353.555 384.86 334.82 378.865 319.833C371.371 301.098 365.157 257.963 356.383 241.146C345.142 219.601 321.723 188.689 278.633 191.499" stroke="#0E0E11" stroke-width="3.74697" stroke-linecap="round"/>
<path d="M413.524 348.872L512.819 467.838H364.813L320.787 410.697L413.524 348.872Z" fill="#8280ED" stroke="#8280ED" stroke-width="3.74697" stroke-linecap="round"/>
<path d="M306.735 216.791C293.933 200.866 259.898 171.827 226.176 183.068" stroke="#0E0E11" stroke-width="3.74697" stroke-linecap="round"/>
<path d="M206.504 278.616L200.884 289.857M212.125 284.236L208.378 291.73" stroke="#0E0E11" stroke-width="3.74697" stroke-linecap="round"/>
<path d="M201.82 202.74L192.952 225.796C192.622 226.655 192.453 227.567 192.453 228.486V240.194C192.453 243.068 194.096 245.688 196.683 246.94L216.005 256.289C219.201 257.836 223.044 256.927 225.209 254.113L230.859 246.767" stroke="#0E0E11" stroke-width="3.74697" stroke-linecap="round"/>
<path d="M219.618 224.285C217.433 227.095 211.375 232.154 204.631 229.906" stroke="#0E0E11" stroke-width="3.74697" stroke-linecap="round"/>
<path d="M161.54 153.092C161.228 155.903 159.292 161.523 154.047 161.523C147.489 161.523 138.122 155.903 141.869 151.219" stroke="#0E0E11" stroke-width="3.74697" stroke-linecap="round"/>
<path d="M178.491 279.035L184.764 268.579C185.357 267.59 184.93 266.291 183.884 265.804C178.74 263.41 170.525 259.172 167.161 263.882C162.947 269.781 170.61 275.933 175.829 279.609C176.712 280.231 177.935 279.961 178.491 279.035Z" stroke="#0E0E11" stroke-width="3.74697" stroke-linecap="round"/>
<path fill-rule="evenodd" clip-rule="evenodd" d="M479.857 272.996C474.338 272.996 469.865 277.469 469.865 282.988C469.865 283.491 469.474 283.924 468.97 283.924H448.32C442.629 283.924 438.016 288.537 438.016 294.228C438.016 299.919 442.629 304.532 448.32 304.532H483.916C489.607 304.532 494.22 299.919 494.22 294.228C494.22 293.563 494.731 292.979 495.397 292.979H504.837C510.355 292.979 514.828 288.506 514.828 282.988C514.828 277.469 510.355 272.996 504.837 272.996H479.857Z" fill="white"/>
<path d="M471.738 282.988C471.738 278.504 475.373 274.869 479.857 274.869V271.122C473.304 271.122 467.991 276.434 467.991 282.988H471.738ZM448.32 285.798H468.97V282.051H448.32V285.798ZM439.889 294.228C439.889 289.572 443.664 285.798 448.32 285.798V282.051C441.594 282.051 436.142 287.503 436.142 294.228H439.889ZM448.32 302.659C443.664 302.659 439.889 298.884 439.889 294.228H436.142C436.142 300.954 441.594 306.406 448.32 306.406V302.659ZM483.916 302.659H448.32V306.406H483.916V302.659ZM492.347 294.228C492.347 298.884 488.572 302.659 483.916 302.659V306.406C490.641 306.406 496.094 300.954 496.094 294.228H492.347ZM504.837 291.106H495.397V294.853H504.837V291.106ZM512.955 282.988C512.955 287.471 509.32 291.106 504.837 291.106V294.853C511.39 294.853 516.702 289.541 516.702 282.988H512.955ZM504.837 274.869C509.32 274.869 512.955 278.504 512.955 282.988H516.702C516.702 276.434 511.39 271.122 504.837 271.122V274.869ZM479.857 274.869H504.837V271.122H479.857V274.869ZM496.094 294.228C496.094 294.373 496.04 294.512 495.937 294.624C495.827 294.743 495.635 294.853 495.397 294.853V291.106C493.555 291.106 492.347 292.675 492.347 294.228H496.094ZM467.991 282.988C467.991 282.57 468.329 282.051 468.97 282.051V285.798C470.618 285.798 471.738 284.412 471.738 282.988H467.991Z" fill="#0E0E11"/>
<path d="M181.348 438.799L194.805 432.07C198.065 430.441 198.438 425.935 195.49 423.792V423.792C193.356 422.24 190.373 422.674 188.77 424.77L188.575 425.025C185.583 428.938 189.215 434.428 193.986 433.204L216.008 427.558" stroke="#0E0E11" stroke-width="3.74697" stroke-linecap="round" stroke-linejoin="round"/>
<path d="M212.364 22.1131L229.276 7.00677M219.052 32.7949L230.171 29.0369M203.508 12.9535L209.138 2.52781" stroke="#0E0E11" stroke-width="3.74697" stroke-linecap="round" stroke-linejoin="round"/>
<path d="M254.414 61.2919C254.414 38.5285 272.868 20.0752 295.631 20.0752H296.568C318.814 20.0752 336.848 38.1091 336.848 60.3551C336.848 82.6011 318.814 100.635 296.568 100.635H271.784C270.215 100.635 268.664 100.976 267.24 101.633L249.409 109.862C247.859 110.578 246.238 109.017 246.895 107.441L253.554 91.4582C254.122 90.0956 254.414 88.6341 254.414 87.158V61.2919Z" fill="white" stroke="#0E0E11" stroke-width="3.74697"/>
<g clip-path="url(#clip0_513_1276)">
<path d="M279.578 42.731C279.001 41.0182 276.89 40.2045 275.436 41.2773L273.72 42.5427C273.03 43.0518 272.357 43.5959 271.832 44.2747C266.634 51.0062 270.185 63.9487 280.246 74.0091C290.306 84.0695 303.249 87.6206 309.98 82.4224C310.659 81.8982 311.203 81.225 311.712 80.5347L312.978 78.819C314.05 77.3645 313.237 75.2543 311.524 74.6773C309.093 73.8585 306.548 72.6812 303.976 71.1739C302.923 70.5571 301.62 70.7862 300.853 71.7348C300.33 72.3811 299.758 72.9801 299.113 73.2778C294.417 75.4453 278.515 60.5598 280.923 55.1485C281.226 54.4667 281.854 53.8555 282.524 53.2947C283.44 52.5269 283.646 51.248 283.044 50.2155C281.554 47.6644 280.39 45.1414 279.578 42.731Z" stroke="#0E0E11" stroke-width="3.74697"/>
<circle cx="304.096" cy="50.9532" r="11.1021" stroke="black" stroke-width="3.74697"/>
<path d="M302.986 46.5125V50.9533C302.986 51.5665 303.483 52.0635 304.096 52.0635H308.537" stroke="black" stroke-width="3.74697" stroke-linecap="round" stroke-linejoin="round"/>
</g>
<defs>
<clipPath id="clip0_513_1276">
<rect width="59.9515" height="59.9515" fill="white" transform="translate(261.908 33.1895)"/>
</clipPath>
</defs>
</svg>
