<svg xmlns="http://www.w3.org/2000/svg" width="194" height="56" fill="none" xmlns:v="https://vecta.io/nano"><g clip-path="url(#E)"><path d="M186.744 56H7.62C3.607 56 .455 52.78.455 49V7c0-3.92 3.296-7 7.165-7h179.124c4.012 0 7.165 3.22 7.165 7v42c0 3.92-3.296 7-7.165 7z" fill="#242427"/><g fill="#fff"><g stroke="#fff" stroke-width=".279" stroke-miterlimit="10"><path d="M66.789 14.244c0 1.117-.279 2.095-.978 2.793-.838.838-1.815 1.257-3.072 1.257s-2.234-.419-3.072-1.257-1.257-1.815-1.257-3.072.419-2.234 1.257-3.072 1.815-1.257 3.072-1.257c.559 0 1.117.14 1.676.419s.978.559 1.257.978l-.698.698c-.559-.698-1.257-.978-2.234-.978-.838 0-1.676.279-2.234.978-.698.559-.978 1.396-.978 2.374s.279 1.816.978 2.374 1.397.978 2.234.978c.978 0 1.676-.279 2.374-.978a2.31 2.31 0 0 0 .698-1.676H62.74v-1.117h4.05v.559zm6.424-3.491h-3.77v2.653h3.491v.977h-3.491v2.653h3.77v1.117h-4.888V9.776h4.888v.978zm4.469 7.402h-1.117v-7.402h-2.374v-.978h5.865v.978h-2.374v7.402zm6.563 0V9.776h1.117v8.379h-1.117zm5.866 0h-1.117v-7.402H86.62v-.978h5.726v.978h-2.374v7.402h.14zm13.267-1.118c-.838.838-1.816 1.257-3.073 1.257s-2.234-.419-3.072-1.257-1.257-1.815-1.257-3.072.419-2.234 1.257-3.072 1.815-1.257 3.072-1.257 2.235.419 3.073 1.257 1.257 1.815 1.257 3.072c-.14 1.257-.419 2.234-1.257 3.072zm-5.447-.698c.559.559 1.397.977 2.235.977s1.676-.279 2.234-.977a3.37 3.37 0 0 0 .978-2.374c0-.978-.279-1.815-.978-2.374-.558-.559-1.396-.977-2.234-.977s-1.676.279-2.235.977a3.37 3.37 0 0 0-.977 2.374c.14.978.419 1.816.977 2.374zm8.1 1.816V9.776h1.257l4.05 6.564v-1.676-4.888h1.117v8.379h-1.117l-4.329-6.843v1.676 5.167h-.978z"/></g><path d="M95.697 30.444c-3.352 0-6.005 2.514-6.005 6.005a5.96 5.96 0 0 0 6.005 6.005c3.352 0 6.005-2.514 6.005-6.005 0-3.631-2.793-6.005-6.005-6.005zm0 9.496c-1.815 0-3.352-1.536-3.352-3.631s1.536-3.631 3.352-3.631 3.352 1.396 3.352 3.631c0 2.095-1.536 3.631-3.352 3.631zm-12.988-9.496c-3.352 0-6.005 2.514-6.005 6.005a5.96 5.96 0 0 0 6.005 6.005c3.352 0 6.005-2.514 6.005-6.005-.14-3.631-2.793-6.005-6.005-6.005zm0 9.496c-1.815 0-3.352-1.536-3.352-3.631s1.536-3.631 3.352-3.631 3.352 1.396 3.352 3.631c0 2.095-1.536 3.631-3.352 3.631zm-15.501-7.681v2.514h6.005c-.14 1.397-.698 2.514-1.397 3.212-.838.838-2.234 1.816-4.608 1.816-3.771 0-6.564-2.933-6.564-6.703s2.933-6.703 6.564-6.703c1.955 0 3.491.838 4.608 1.815l1.816-1.815c-1.536-1.397-3.491-2.514-6.284-2.514-5.027 0-9.357 4.19-9.357 9.217s4.329 9.217 9.357 9.217c2.793 0 4.748-.838 6.424-2.653 1.676-1.676 2.234-4.05 2.234-5.865 0-.559 0-1.117-.14-1.536h-8.658zm63.262 1.955c-.559-1.397-1.955-3.771-5.028-3.771s-5.586 2.374-5.586 6.005c0 3.352 2.514 6.005 5.866 6.005 2.653 0 4.329-1.676 4.887-2.653l-1.955-1.397c-.698.978-1.536 1.676-2.932 1.676s-2.235-.559-2.933-1.815l7.96-3.352-.279-.698zm-8.1 1.955c0-2.234 1.815-3.491 3.072-3.491.978 0 1.955.559 2.235 1.257l-5.307 2.234zm-6.424 5.726h2.653V24.439h-2.653v17.456zm-4.329-10.194c-.698-.698-1.816-1.396-3.212-1.396-2.933 0-5.726 2.653-5.726 6.005s2.653 5.865 5.726 5.865c1.396 0 2.514-.698 3.072-1.396h.14v.838c0 2.234-1.257 3.491-3.212 3.491-1.536 0-2.654-1.117-2.933-2.095l-2.234.978c.698 1.536 2.374 3.491 5.306 3.491 3.073 0 5.586-1.815 5.586-6.145V30.723h-2.513v.978zm-2.933 8.239c-1.815 0-3.352-1.536-3.352-3.631s1.537-3.631 3.352-3.631 3.212 1.536 3.212 3.631c-.14 2.095-1.396 3.631-3.212 3.631zm34.075-15.501h-6.284v17.456h2.653v-6.564h3.631c2.933 0 5.726-2.095 5.726-5.446s-2.933-5.446-5.726-5.446zm0 8.379h-3.771v-6.005h3.771c1.955 0 3.072 1.676 3.072 2.933 0 1.536-1.117 3.072-3.072 3.072zm16.06-2.514c-1.955 0-3.91.838-4.609 2.653l2.374.977c.559-.977 1.397-1.257 2.374-1.257 1.397 0 2.654.838 2.793 2.234v.14c-.418-.279-1.536-.698-2.653-.698-2.514 0-5.027 1.397-5.027 3.91 0 2.374 2.094 3.91 4.329 3.91 1.815 0 2.653-.838 3.351-1.676h.14v1.396h2.514v-6.703c-.279-3.072-2.514-4.888-5.586-4.888zm-.279 9.636c-.838 0-2.095-.419-2.095-1.536 0-1.397 1.536-1.815 2.793-1.815 1.117 0 1.676.279 2.374.559-.14 1.676-1.536 2.793-3.072 2.793zm14.803-9.217l-2.933 7.541h-.14l-3.072-7.541h-2.793l4.608 10.614-2.653 5.865h2.653l7.123-16.479h-2.793zm-23.462 11.172h2.654V24.439h-2.654v17.456z"/></g><path d="M15.118 10.474c-.419.419-.698 1.117-.698 1.955v30.863c0 .838.279 1.536.698 1.955l.14.14L32.574 28.07v-.14-.14L15.118 10.474z" fill="url(#A)"/><path d="M38.3 33.935l-5.726-5.865v-.14-.14l5.726-5.726.14.14 6.843 3.91c1.955 1.117 1.955 2.933 0 4.05L38.3 33.935z" fill="url(#B)"/><path d="M38.44 33.796l-5.865-5.865-17.456 17.456c.698.698 1.676.698 2.933.14L38.44 33.796z" fill="url(#C)"/><path d="M38.44 22.065L18.051 10.474c-1.257-.698-2.234-.559-2.933.14L32.574 27.93l5.865-5.865z" fill="url(#D)"/><g fill="#242427"><path opacity=".2" d="M38.3 33.656L18.051 45.107c-1.117.698-2.095.559-2.793 0l-.14.14.14.14c.698.559 1.676.698 2.793 0L38.3 33.656z"/><path opacity=".12" d="M15.118 45.107c-.419-.419-.698-1.117-.698-1.955v.14c0 .838.279 1.536.698 1.955v-.14zm30.164-15.361l-6.983 3.91.14.14 6.843-3.91c.978-.559 1.397-1.257 1.397-1.955 0 .698-.559 1.257-1.397 1.816z"/></g><path opacity=".25" d="M18.051 10.614l27.232 15.501c.838.559 1.397 1.117 1.397 1.816 0-.698-.419-1.396-1.397-1.955L18.051 10.474c-1.955-1.117-3.631-.279-3.631 1.955v.14c0-2.095 1.676-3.072 3.631-1.955z" fill="#fff"/></g><defs><linearGradient id="A" x1="30.972" y1="12.164" x2="7.535" y2="35.601" href="#F"><stop stop-color="#00a0ff"/><stop offset=".007" stop-color="#00a1ff"/><stop offset=".26" stop-color="#00beff"/><stop offset=".512" stop-color="#00d2ff"/><stop offset=".76" stop-color="#00dfff"/><stop offset="1" stop-color="#00e3ff"/></linearGradient><linearGradient id="B" x1="47.779" y1="27.933" x2="13.987" y2="27.933" href="#F"><stop stop-color="#ffe000"/><stop offset=".409" stop-color="#ffbd00"/><stop offset=".775" stop-color="orange"/><stop offset="1" stop-color="#ff9c00"/></linearGradient><linearGradient id="C" x1="35.199" y1="31.137" x2="3.417" y2="62.92" href="#F"><stop stop-color="#ff3a44"/><stop offset="1" stop-color="#c31162"/></linearGradient><linearGradient id="D" x1="10.719" y1=".247" x2="24.911" y2="14.439" href="#F"><stop stop-color="#32a071"/><stop offset=".069" stop-color="#2da771"/><stop offset=".476" stop-color="#15cf74"/><stop offset=".801" stop-color="#06e775"/><stop offset="1" stop-color="#00f076"/></linearGradient><clipPath id="E"><path fill="#fff" transform="translate(.455)" d="M0 0h193.455v56H0z"/></clipPath><linearGradient id="F" gradientUnits="userSpaceOnUse"/></defs></svg>