<svg xmlns="http://www.w3.org/2000/svg" width="195" height="56" fill="none" xmlns:v="https://vecta.io/nano"><g clip-path="url(#A)"><path d="M11.941 56h-1.307l-2.729-.23a8.19 8.19 0 0 1-2.422-.804c-.769-.383-1.422-.88-2.037-1.455s-1.076-1.263-1.499-2.029c-.384-.727-.615-1.531-.769-2.411-.192-.957-.231-1.952-.231-2.718l-.038-1.302V10.947l.038-1.301c0-.766.077-1.761.231-2.718.192-.88.423-1.646.807-2.373.384-.766.884-1.455 1.461-2.029a7.94 7.94 0 0 1 2.076-1.493C6.252.651 7.059.383 7.905.23 8.866.038 9.865 0 10.634 0h1.307 171.43 1.306c.731 0 1.73.077 2.691.23.884.153 1.653.421 2.422.804.73.383 1.422.88 2.037 1.455.576.574 1.076 1.263 1.499 2.029.384.727.615 1.531.769 2.373.153.919.23 1.837.269 2.718v1.301 1.569 31.005 1.569 1.34l-.231 2.68c-.154.88-.423 1.684-.769 2.411-.384.766-.884 1.416-1.46 1.99-.615.612-1.269 1.11-2.038 1.493s-1.537.651-2.421.804a17.13 17.13 0 0 1-2.729.23h-1.307-1.576H11.941z" fill="#242427"/><g fill="#fff"><path d="M71.843 38.172h-6.819l-1.676 4.571h-3.01l6.667-17.029h2.819l6.819 17.029h-3.162l-1.638-4.571zM65.9 35.886h5.105l-1.829-4.876c-.267-.686-.495-1.41-.724-2.248l-.724 2.21-1.829 4.914zm12.001-2.705l-.076-3.086h2.743a11.56 11.56 0 0 1 .229 1.6c1.143-1.219 2.438-1.829 3.886-1.829.838 0 1.638.229 2.362.648s1.295 1.105 1.752 2.019.648 2.095.648 3.505c0 1.486-.267 2.743-.762 3.81s-1.219 1.829-2.133 2.4c-.914.533-1.943.8-3.162.8-.876 0-1.714-.152-2.552-.419v5.257l-2.895.267V33.181h-.038zm7.657 6.476c.609-.8.876-1.943.876-3.505 0-1.41-.229-2.438-.724-3.086a2.31 2.31 0 0 0-1.943-.952c-.571 0-1.105.114-1.562.381-.495.267-.914.61-1.371 1.067v6.819a3.62 3.62 0 0 0 1.029.343 5.83 5.83 0 0 0 1.143.114c1.105 0 1.943-.381 2.552-1.181zm5.599-6.476l-.076-3.086h2.743a11.57 11.57 0 0 1 .228 1.6c1.143-1.219 2.438-1.829 3.886-1.829.838 0 1.638.229 2.362.648s1.295 1.105 1.753 2.019.647 2.095.647 3.505c0 1.486-.267 2.743-.762 3.81a5.47 5.47 0 0 1-2.133 2.4c-.914.533-1.943.8-3.162.8a8.33 8.33 0 0 1-2.552-.419v5.257l-2.895.267V33.181h-.038zm7.657 6.476c.61-.8.876-1.943.876-3.505 0-1.41-.228-2.438-.724-3.086a2.31 2.31 0 0 0-1.943-.952c-.572 0-1.105.114-1.562.381-.495.267-.914.609-1.372 1.067v6.819c.305.152.61.267 1.029.343a5.82 5.82 0 0 0 1.143.114c1.105 0 1.943-.381 2.552-1.181zm9.182 2.286c-1.257-.686-2.21-1.676-2.895-2.971s-1.029-2.819-1.029-4.571c0-1.905.381-3.543 1.181-4.876.762-1.333 1.829-2.324 3.162-3.01s2.819-.99 4.495-.99c.991 0 1.905.114 2.819.305.876.229 1.715.495 2.476.876l-.723 2.248c-1.562-.762-3.048-1.143-4.419-1.143-1.181 0-2.21.267-3.124.762-.876.495-1.6 1.257-2.095 2.209-.496.991-.724 2.171-.724 3.543 0 1.219.19 2.286.571 3.238s.991 1.676 1.791 2.248c.8.533 1.866.838 3.085.838.572 0 1.143-.038 1.677-.152a7.06 7.06 0 0 0 1.6-.419V36.65h-3.924V34.4h6.743v7.162a14.4 14.4 0 0 1-3.048 1.029c-1.067.229-2.133.381-3.2.381-1.676 0-3.162-.343-4.419-1.029zm21.028.8c-.114-.495-.152-1.067-.191-1.676-.457.533-1.028.991-1.752 1.371s-1.524.572-2.438.572a4.72 4.72 0 0 1-1.981-.419c-.609-.305-1.067-.724-1.448-1.295-.342-.572-.533-1.295-.533-2.095 0-1.219.457-2.21 1.333-2.933s2.362-1.105 4.419-1.105c.762 0 1.562.038 2.324.152v-.267c0-1.105-.228-1.905-.724-2.362s-1.18-.686-2.057-.686c-.609 0-1.295.076-1.981.267-.723.191-1.333.381-1.866.648l-.457-2.133a11.01 11.01 0 0 1 2.057-.648c.838-.191 1.752-.305 2.666-.305 1.105 0 2.019.152 2.781.495s1.372.914 1.791 1.714.647 1.905.647 3.276v5.029l.077 2.4h-2.667zm-1.752-2.362c.609-.305 1.104-.648 1.485-1.067v-2.362l-1.943-.114c-1.181 0-2.019.191-2.476.572s-.685.914-.685 1.562c0 .61.152 1.105.495 1.41s.8.457 1.371.457 1.143-.152 1.753-.457zm6.59-.686V24.724l2.895-.229V39.2c0 .533.076.914.267 1.143s.457.343.876.343c.191 0 .419-.038.762-.114l.343 2.095c-.267.114-.61.191-.991.267a5.72 5.72 0 0 1-1.104.114c-2.019-.076-3.048-1.143-3.048-3.352zm7.238 0V24.724l2.896-.229V39.2c0 .533.076.914.266 1.143s.458.343.877.343c.19 0 .419-.038.761-.114l.343 2.095c-.266.114-.609.191-.99.267a5.73 5.73 0 0 1-1.105.114c-2.019-.076-3.048-1.143-3.048-3.352zm17.067-2.933h-8.305c.114 2.667 1.41 4 3.81 4a7.51 7.51 0 0 0 1.828-.228c.61-.152 1.219-.343 1.791-.572l.647 1.981c-1.409.686-3.009 1.029-4.8 1.029-1.333 0-2.476-.267-3.428-.762-.915-.495-1.638-1.257-2.096-2.21s-.685-2.095-.685-3.467c0-1.41.228-2.629.724-3.619.495-1.028 1.18-1.79 2.057-2.324s1.904-.8 3.047-.8c1.181 0 2.21.267 3.01.838a4.97 4.97 0 0 1 1.79 2.248c.381.953.572 1.981.572 3.086v.8h.038zm-2.857-1.828c-.038-1.029-.305-1.752-.762-2.286-.457-.495-1.067-.762-1.829-.762a2.5 2.5 0 0 0-1.828.762c-.496.495-.8 1.257-.953 2.286h5.372zm5.028-1.677l-.076-3.2h2.705l.152 1.257.076 1.181a12.55 12.55 0 0 1 .991-1.41 4.32 4.32 0 0 1 1.143-.914c.419-.229.914-.343 1.485-.343.458 0 .839.038 1.143.152l-.381 2.514c-.266-.076-.609-.114-.952-.114-.686 0-1.295.191-1.791.533s-1.066.914-1.638 1.714v8.152H160.3v-9.524h.038zm9.258 14.667c-.419-.076-.762-.152-1.029-.267l.534-2.133.723.152.839.076c1.295 0 2.247-.838 2.895-2.476l.19-.457-4.685-12.8h3.123l2.362 7.162c.381 1.219.648 2.172.724 2.819l.762-2.743 2.4-7.2h2.933l-4.685 12.838c-.458 1.219-.915 2.209-1.41 2.933a4.98 4.98 0 0 1-1.79 1.676c-.686.343-1.524.533-2.515.533-.495 0-.952-.038-1.371-.114z"/><use href="#B"/><path d="M69.1 13.791l-2.743-4.305h1.714l1.867 3.162 1.943-3.162h1.676l-2.705 4.267 2.933 4.533h-1.752l-2.095-3.467-2.133 3.467h-1.676l2.972-4.495zm5.79-4.305h2.362c1.105 0 1.981.229 2.552.686.609.457.876 1.105.876 1.981 0 .571-.114 1.105-.381 1.524a2.78 2.78 0 0 1-1.105.991c-.457.229-1.029.343-1.638.343-.343 0-.724-.038-1.143-.114v3.39H74.89v-8.8zm3.81 3.924a1.72 1.72 0 0 0 .495-1.257c0-.533-.152-.914-.495-1.181-.343-.229-.8-.343-1.448-.343h-.838v3.124c.381.076.686.076.876.076.61.038 1.105-.114 1.41-.419zm3.505-3.924h1.524v7.505h3.619l-.114 1.295h-5.029v-8.8zm7.467 8.381c-.648-.381-1.143-.876-1.486-1.562-.343-.648-.495-1.448-.495-2.324 0-.914.191-1.752.533-2.438.381-.686.876-1.219 1.562-1.6s1.486-.571 2.4-.571c.876 0 1.638.19 2.286.533.648.381 1.143.876 1.448 1.562.343.648.495 1.448.495 2.324 0 .952-.191 1.752-.533 2.476-.381.686-.876 1.219-1.562 1.6s-1.486.571-2.4.571c-.838-.038-1.6-.229-2.248-.571zm3.924-1.105c.419-.267.724-.686.952-1.181s.305-1.067.305-1.714-.076-1.181-.267-1.676a2.76 2.76 0 0 0-.876-1.181c-.419-.305-.952-.457-1.562-.457s-1.143.152-1.562.457-.762.686-.952 1.181c-.229.495-.305 1.067-.305 1.638a4.73 4.73 0 0 0 .305 1.714c.191.495.495.914.914 1.181.419.305.914.419 1.562.419.533.076 1.067-.076 1.486-.381zm4.571-7.276h2.743c.99 0 1.752.19 2.285.61s.762.99.762 1.714c0 .457-.076.876-.266 1.219s-.419.648-.686.876-.572.381-.838.495l2.705 3.886h-1.753l-2.286-3.467h-1.104v3.467h-1.524v-8.8h-.038zm2.362 4.152a2.1 2.1 0 0 0 .99-.229c.267-.152.495-.343.648-.61s.228-.571.228-.914c0-.457-.152-.762-.419-.952s-.685-.305-1.219-.305h-1.105v3.009h.876zm5.523-4.152h5.181l-.152 1.257h-3.505v2.438h3.314v1.181h-3.314v2.667h3.695l-.114 1.257h-5.105v-8.8zm10.781 0h1.524v8.8h-1.524v-8.8zm5.524 1.257h-2.743l.153-1.257h6.857l-.152 1.257h-2.591v7.543h-1.524v-7.543zm10.857 7.124c-.648-.381-1.143-.876-1.486-1.562-.342-.648-.495-1.448-.495-2.324 0-.914.191-1.752.533-2.438s.877-1.219 1.562-1.6 1.486-.571 2.4-.571c.877 0 1.638.19 2.286.533.648.381 1.143.876 1.448 1.562.343.648.495 1.448.495 2.324 0 .952-.191 1.752-.533 2.476-.381.686-.877 1.219-1.562 1.6s-1.486.571-2.4.571c-.838-.038-1.6-.229-2.248-.571zm3.924-1.105c.419-.267.724-.686.952-1.181s.305-1.067.305-1.714-.076-1.181-.267-1.676a2.75 2.75 0 0 0-.876-1.181c-.419-.305-.952-.457-1.562-.457s-1.143.152-1.562.457-.762.686-.952 1.181c-.229.495-.305 1.067-.305 1.638 0 .648.115 1.219.305 1.714s.495.914.914 1.181c.419.305.953.419 1.562.419.534.076 1.067-.076 1.486-.381zm4.572-7.276h1.752l4.343 6.819-.038-1.79V9.486h1.409v8.8H147.5l-4.419-6.933.076 2.095v4.838h-1.409v-8.8h-.038z"/></g><path fill-rule="evenodd" d="M39.005 9.524H22.89c-7.619 0-10.4 2.781-10.4 10.4v16.152c0 7.619 2.781 10.4 10.4 10.4h16.114c7.619 0 10.4-2.781 10.4-10.4V19.924c0-7.619-2.781-10.4-10.4-10.4z" fill="#c8102e"/><g fill="#fff"><path d="M19.805 28h.991v4.838h-.991v-1.981h-2.21V32.8h-.99V28h.99v1.943h2.21V28zm5.524 2.743c0 .8-.381 1.219-1.105 1.219s-1.105-.419-1.105-1.219V28h-.991v2.743c0 1.371.762 2.133 2.057 2.133 1.333 0 2.095-.8 2.095-2.171V28h-.99v2.743h.038zm11.314.571L35.538 28h-.8l-1.105 3.314L32.567 28h-1.029l1.676 4.838h.8l1.105-3.162 1.105 3.162h.8L38.7 28h-1.029l-1.029 3.314zm3.81-.571h1.791v-.876h-1.791v-.99h2.59V28H39.5v4.8h3.657v-.876H40.49v-1.181h-.038zM44.3 32.8h.952V28H44.3v4.8zm-16.076-.991l-.457.991h-.991l2.133-4.838h.876l2.133 4.838H30.89l-.419-.991h-2.248zm.381-.876h1.486l-.724-1.714-.762 1.714zm2.324-9.066a6.13 6.13 0 0 1-6.133-6.133h.876a5.27 5.27 0 0 0 5.257 5.257 5.27 5.27 0 0 0 5.257-5.257h.914c0 3.352-2.781 6.133-6.171 6.133z"/></g></g><defs><clipPath id="A"><path fill="#fff" transform="translate(.909)" d="M0 0h193.455v56H0z"/></clipPath><path id="B" d="M60.338 9.486h5.181l-.152 1.257h-3.505v2.438h3.314v1.181h-3.314v2.667h3.695l-.114 1.257h-5.105v-8.8z"/></defs></svg>