<svg xmlns="http://www.w3.org/2000/svg" width="174" height="70" fill="none" xmlns:v="https://vecta.io/nano"><style><![CDATA[.B{color-interpolation-filters:sRGB}.C{flood-opacity:0}]]></style><g filter="url(#B)"><path d="M11.496 35.007a23.84 23.84 0 0 1 23.836-23.836 23.84 23.84 0 0 1 23.836 23.836 23.84 23.84 0 0 1-23.836 23.836H21.314a9.82 9.82 0 0 1-9.818-9.818V35.007z" fill="#2c2b74"/></g><g filter="url(#C)"><path d="M7.198 28.181C7.198 13.721 18.919 2 33.378 2s26.181 11.721 26.181 26.181-11.721 26.181-26.181 26.181H17.016a9.82 9.82 0 0 1-9.818-9.818V28.181z" fill="url(#F)"/></g><mask id="A" maskUnits="userSpaceOnUse" x="7" y="2" width="53" height="53" mask-type="alpha"><path d="M7.198 28.181C7.198 13.721 18.919 2 33.378 2s26.181 11.721 26.181 26.181-11.721 26.181-26.181 26.181H17.016a9.82 9.82 0 0 1-9.818-9.818V28.181z" fill="#5856d6"/></mask><g mask="url(#A)"><g filter="url(#D)"><path d="M33.769 97.918l-44.937-31.26 26.181-47.672 1.144 4.449A26.15 26.15 0 0 0 26.283 38.2c3.852 2.752 8.468 4.231 13.203 4.231h7.142L33.769 97.918z" fill="url(#G)" fill-opacity=".2" style="mix-blend-mode:plus-darker"/></g><g filter="url(#E)"><path d="M25.954 95.574L-1.399 70.175l16.412-51.189 1.144 4.449A26.15 26.15 0 0 0 26.283 38.2c3.852 2.752 8.468 4.231 13.203 4.231h7.142L25.954 95.574z" fill="url(#H)" fill-opacity=".5" style="mix-blend-mode:plus-darker"/></g></g><path d="M34.977 20.289c-.827.364-1.86.402-2.499-.237l-2.314-2.314c-.639-.639-.645-1.687.081-2.225 4.293-3.179 10.381-2.823 14.273 1.068s4.247 9.979 1.068 14.272c-.538.726-1.586.72-2.225.081l-2.314-2.314c-.639-.639-.601-1.672-.237-2.499.715-1.621.408-3.584-.92-4.913s-3.291-1.635-4.913-.92z" fill="url(#I)"/><path d="M24.519 21.833c.711-1.154.743-2.698-.216-3.657l-3.471-3.471c-.959-.958-2.527-.966-3.364.1-6.255 7.966-5.712 19.531 1.629 26.872s18.906 7.884 26.871 1.629c1.066-.837 1.059-2.406.1-3.364l-3.471-3.471c-.958-.959-2.502-.927-3.657-.216-4.039 2.488-9.401 1.981-12.902-1.52s-4.008-8.862-1.52-12.902z" fill="url(#I)"/><path d="M86.847 38.531c-1.863 1.863-4.051 2.794-6.565 2.794-3.613 0-6.307-1.347-8.08-4.04-1.279-1.93-1.919-4.197-1.919-6.8 0-3.389.875-6.116 2.626-8.181 1.728-2.065 4.13-3.097 7.204-3.097 2.154 0 4.309.909 6.464 2.727l-1.717 2.794c-1.616-1.167-3.086-1.751-4.41-1.751-1.84 0-3.266.774-4.275 2.323-.875 1.324-1.313 3.052-1.313 5.184 0 1.885.516 3.501 1.549 4.848 1.1 1.414 2.57 2.121 4.41 2.121 1.212 0 2.648-.527 4.309-1.582l1.717 2.66zm15.637 2.39h-3.4l-.337-1.448c-1.481 1.234-2.985 1.852-4.511 1.852-3.389 0-5.083-1.65-5.083-4.949 0-1.638.707-2.918 2.121-3.838 1.436-.943 3.557-1.414 6.363-1.414h.707v-.067c0-.965-.202-1.627-.606-1.986s-1.133-.539-2.188-.539c-1.481 0-2.839.471-4.073 1.414l-1.145-2.188c1.279-.987 2.39-1.649 3.333-1.986.965-.359 2.11-.539 3.434-.539 3.591 0 5.386 2.244 5.386 6.733v8.955zm-4.275-7.204h-.505c-1.279 0-2.312.224-3.097.673s-1.178 1.044-1.178 1.784c0 1.391.606 2.087 1.818 2.087.741 0 1.392-.213 1.953-.64s.898-.965 1.01-1.616v-2.289zm13.094-14.509v21.714h-4.242V21.429l4.242-2.222zm8.81 0v21.714h-4.241V21.429l4.241-2.222zm4.435.404h13.937v3.535h-9.527v5.016h7.945v3.535h-7.945v5.689h9.965v3.535h-14.375v-21.31zm31.169 6.026l-3.704 10.133-2.693 7.373c-1.055 2.805-2.536 4.208-4.443 4.208-1.482 0-3.008-.64-4.579-1.919a63.84 63.84 0 0 0 1.145-2.02c.83.539 1.56.808 2.188.808.92 0 1.739-1.1 2.457-3.299h-.808l-5.352-15.284h4.208l1.144 3.467.202.539 2.088 6.43 3.905-10.436h4.242zm16.605 9.022h-10.503c.089 1.032.505 1.897 1.245 2.592.763.673 1.661 1.01 2.693 1.01 1.459 0 2.985-.449 4.579-1.347l1.077 2.255c-1.616 1.436-3.636 2.155-6.06 2.155-2.603 0-4.634-.741-6.093-2.222-1.391-1.392-2.087-3.31-2.087-5.757 0-2.401.785-4.388 2.356-5.959 1.414-1.436 3.21-2.155 5.387-2.155 2.424 0 4.309.819 5.655 2.457 1.168 1.392 1.751 3.198 1.751 5.42v1.549zm-10.739-3.131h6.497c-.112-2.199-1.178-3.299-3.198-3.299-1.952 0-3.052 1.1-3.299 3.299z" fill="#0e0e11"/><defs><filter id="B" x=".555" y=".229" width="69.554" height="69.554" filterUnits="userSpaceOnUse" class="B"><feFlood class="C"/><feBlend in="SourceGraphic"/><feGaussianBlur stdDeviation="5.471"/></filter><filter id="C" x="5.635" y="-.345" width="54.706" height="56.269" filterUnits="userSpaceOnUse" class="B"><feFlood class="C"/><feBlend in="SourceGraphic" result="B"/><feColorMatrix in="SourceAlpha" values="0 0 0 0 0 0 0 0 0 0 0 0 0 0 0 0 0 0 127 0" result="C"/><feOffset/><feGaussianBlur stdDeviation="2.735"/><feComposite in2="C" operator="arithmetic" k2="-1" k3="1"/><feColorMatrix values="0 0 0 0 1 0 0 0 0 1 0 0 0 0 1 0 0 0 0.7 0"/><feBlend in2="B" result="D"/><feColorMatrix in="SourceAlpha" values="0 0 0 0 0 0 0 0 0 0 0 0 0 0 0 0 0 0 127 0" result="C"/><feOffset dx="0.78151" dy="-2.34453"/><feGaussianBlur stdDeviation="3.126"/><feComposite in2="C" operator="arithmetic" k2="-1" k3="1"/><feColorMatrix values="0 0 0 0 0.162661 0 0 0 0 0.0676042 0 0 0 0 0.275 0 0 0 0.8 0"/><feBlend in2="D" result="E"/><feColorMatrix in="SourceAlpha" values="0 0 0 0 0 0 0 0 0 0 0 0 0 0 0 0 0 0 127 0" result="C"/><feOffset dx="-1.56302" dy="2.34453"/><feGaussianBlur stdDeviation=".782"/><feComposite in2="C" operator="arithmetic" k2="-1" k3="1"/><feColorMatrix values="0 0 0 0 1 0 0 0 0 1 0 0 0 0 1 0 0 0 0.5 0"/><feBlend in2="E"/></filter><filter id="D" x="-11.949" y="18.204" width="59.358" height="80.496" filterUnits="userSpaceOnUse" class="B"><feFlood class="C"/><feBlend in="SourceGraphic"/><feGaussianBlur stdDeviation=".391"/></filter><filter id="E" x="-3.743" y="16.641" width="52.715" height="81.277" filterUnits="userSpaceOnUse" class="B"><feFlood class="C"/><feBlend in="SourceGraphic"/><feGaussianBlur stdDeviation="1.172"/></filter><linearGradient id="F" x1="26.345" y1="37.742" x2="59.168" y2="1.792" href="#J"><stop stop-color="#5856d6"/><stop offset="1" stop-color="#00c7be"/></linearGradient><linearGradient id="G" x1="20.093" y1="17.032" x2="4.112" y2="54.341" href="#J"><stop/><stop offset="1" stop-opacity="0"/></linearGradient><linearGradient id="H" x1="20.093" y1="17.032" x2="4.112" y2="54.341" href="#J"><stop stop-opacity=".71"/><stop offset="1" stop-opacity="0"/></linearGradient><linearGradient id="I" x1="30.441" y1="13.515" x2="30.441" y2="47.901" href="#J"><stop stop-color="#f6f6fb"/><stop offset="1" stop-color="#cccbf7"/></linearGradient><linearGradient id="J" gradientUnits="userSpaceOnUse"/></defs></svg>