<svg xmlns="http://www.w3.org/2000/svg" width="509" height="521" fill="none" xmlns:v="https://vecta.io/nano"><style><![CDATA[.B{stroke:#0e0e11}.C{stroke-width:3.929}.D{fill:#fff}.E{stroke-linecap:round}.F{fill:#0e0e11}.G{fill-rule:evenodd}.H{stroke-linejoin:round}.I{fill:#ffddad}]]></style><path d="M407.5 398.5l51-57.5c38 52.4 44.167 140.167 42.5 177.5h-77c-3.5-4.5-9-39.5-10-74.5-.8-28-4.667-42-6.5-45.5z" class="I"/><path d="M453.64 336.344c16.371 15.06 48.718 72.487 47.147 181.709m-97.24-129.652c16.698 26.52 4.911 80.542 20.627 130.635" class="B C E"/><path d="M345.597 245.98c30.448 14.079 95.864 52.254 117.865 92.328l-57.95 66.791-9.822-17.68L412.387 521H134.421l36.342-142.421v-15.715l-56.969-52.058c17.353-17.352 60.505-54.611 94.293-64.826 5.238 16.698 23.966 51.075 56.968 55.004 41.253 4.911 77.595-21.609 80.542-55.004zm-62.862 239.66c26.038 0 47.146-21.108 47.146-47.146s-21.108-47.146-47.146-47.146-47.146 21.108-47.146 47.146 21.108 47.146 47.146 47.146z" fill="#ff2d55" class="G"/><g class="B C E"><path d="M349.526 189.994c1.964-4.911 4.911-10.804 11.786-12.769m-50.093 54.022c-4.583 11.459-19.84 34.77-44.199 36.342m41.253-43.217c0 2.619 1.964 7.857 9.822 9.822"/><path d="M208.087 239.105c4.584 24.555 27.698 71.112 83.488 60.897s61.88-69.082 57.951-97.239c6.548 1.309 20.037 0 21.608-15.716 1.965-19.644-9.822-26.519-18.662-21.608"/><path d="M236.571 257.767v11.786m-9.822-11.786V272.5"/></g><g class="F"><circle cx="312.202" cy="187.047" r="5.893"/><ellipse cx="346.361" cy="147.546" rx="26.806" ry="19.644" transform="rotate(309.405 346.361 147.546)"/><ellipse cx="325.639" cy="115.708" rx="38.621" ry="28.303" transform="rotate(274.297 325.639 115.708)"/><ellipse cx="296.082" cy="113.381" rx="50.311" ry="39.463" transform="rotate(235.05 296.082 113.381)"/><ellipse cx="240.209" cy="96.094" rx="76.185" ry="55.831" transform="rotate(166.481 240.209 96.094)"/></g><path d="M411.405 519.036L392.743 362.864" class="B C E"/><path d="M252.287 281.34c-3.144-4.715-13.751-9.822-18.663-11.787-21.608 7.858-37.324 43.218-39.288 45.182s-2.947 11.787-5.893 25.538c-2.358 11.001-12.769 19.644-17.68 22.591L120.67 316.7c-54.022 52.057-59.915 91.346-68.755 133.581s17.68 62.861 43.217 58.933 40.271-12.769 58.933-30.449 34.378-45.182 42.235-66.791 15.716-29.466 18.662-32.413 3.929 0 9.823-2.946c4.714-2.358 11.131-14.733 13.751-20.627v-5.893-9.822c3.601 1.637 12.375 3.339 18.662-2.947s7.203-14.406 6.875-17.68c-1.964-1.637-5.893-5.5-5.893-7.857s-1.965-8.84-2.947-11.787c-.982-.655-2.554-2.554-.982-4.911 1.964-2.947 1.964-7.858-1.964-13.751z" class="I"/><path d="M119.044 315.503c-21.67 18.517-65.335 72.063-70.071 141.519-1.499 21.994 4.416 37.404 15.276 46.155 10.836 8.731 26.1 10.429 42.437 6.093 32.662-8.668 70.654-41.631 90.472-94.643.006-.016.012-.032.017-.048 3.883-11.259 8.072-19.378 11.697-24.932 3.473-5.319 6.358-8.179 7.889-9.251.499-.126 1.035-.239 1.605-.359h.001c3.147-.663 7.313-1.54 11.736-5.962.776-.776 1.854-2.22 2.978-3.923 1.149-1.743 2.425-3.88 3.59-6.125 1.161-2.239 2.235-4.628 2.96-6.869.704-2.179 1.164-4.472.842-6.404-.446-2.678-.465-8.341.489-13.828.474-2.727 1.174-5.315 2.125-7.414.966-2.131 2.095-3.543 3.299-4.231.942-.539 1.269-1.739.731-2.681s-1.739-1.269-2.681-.731c-2.233 1.277-3.806 3.548-4.927 6.021-1.136 2.505-1.91 5.442-2.418 8.363-1.01 5.809-1.029 11.931-.493 15.147.162.974-.05 2.523-.705 4.549-.636 1.965-1.608 4.145-2.71 6.268s-2.304 4.137-3.382 5.772c-1.104 1.674-2.001 2.832-2.477 3.308-3.536 3.537-6.483 4.173-9.536 4.832h0c-.776.167-1.559.336-2.36.555-.19.052-.372.132-.538.238-2.145 1.365-5.521 4.776-9.307 10.577-3.82 5.852-8.141 14.26-12.114 25.775-19.473 52.07-56.613 83.925-87.79 92.199-15.585 4.136-29.42 2.335-38.965-5.355-9.52-7.671-15.269-21.604-13.822-42.828 4.667-68.456 48.027-121.306 69.046-139.091l.06-.052-2.955-2.644z" class="F G"/><path d="M236.571 304.913c3.274 2.619 10.805 7.858 19.644 8.84 7.849.872 9.823 8.84 6.876 13.751l-6.171 9.874c-2.192 3.506-6.344 5.264-10.387 4.398l-7.015-1.503m-6.876-53.04c5.894 2.947 18.466 9.429 21.609 11.787s3.929 10.149 3.929 13.751m-4.911-16.698c1.637-2.619 4.125-8.84.982-12.769-3.929-4.911-11.787-9.822-17.68-12.769-13.149-6.574-42.593 40.456-44.199 50.093-.983 5.893-3.193 29.467-15.716 38.306-16.697 11.787-38.306 31.431-47.146 52.058" class="B C E H"/><path d="M169.477 363.367c.821.71 2.061.62 2.771-.2s.621-2.061-.2-2.771l-2.571 2.971zm-48.504-47.171l-1.485-1.285-2.571 2.971 1.485 1.285 2.571-2.971zm51.075 44.2l-51.075-44.2-2.571 2.971 51.075 44.2 2.571-2.971z" class="F"/><circle cx="234.607" cy="199.816" r="57.951" class="I"/><path d="M233.624 150.706c-5.332-.762-11.094-4.662-13.53-6.69a.58.58 0 0 0-.496-.128c-11.161 2.417-33.676 14.374-40.842 43.582-.076.308.106.624.408.723 3.63 1.191 9.044 4.897 8.296 11.623-.982 8.84 7.858 12.769 9.823 14.733s-4.912 7.858-.983 9.823 1.965 3.928 2.947 8.84c.631 3.157 5.112 8.218 8.546 11.613.463.457 1.353-.154 1.213-.79-2.336-10.641 10.868-20.319 10.868-27.521 0-7.858-16.698.982-24.556-12.769s13.751-25.537 20.627-26.52 17.679-5.893 26.519-13.751-1.964-11.786-8.84-12.768zm25.538 18.662c4.522-.754 11.214-7.593 14.353-11.328.212-.252.579-.291.826-.074 8.477 7.451 22.831 27.836 16.507 53.619-.108.441-.675.603-1.088.412-1.93-.89-4.599.588-8.007.588-3.929 0-5.893-1.964-7.858-4.911s-6.875-5.893-5.893-13.751-8.84-11.787-10.804-13.751-3.929-9.822 1.964-10.804zm-35.277 38.306c-1.559-8.573 19.301-10.769 30.183-10.804a.58.58 0 0 1 .441.202c5.967 6.827 18.477 14.608 17.505 22.389-.983 7.857-10.805 1.964-15.716 15.715-3.731 10.446-7.757 15.224-9.555 16.52a.48.48 0 0 1-.546.016c-1.369-.894-3.65-3.795-3.65-9.661 0-7.857-2.946-14.733-6.875-20.626s-9.823-2.947-11.787-13.751z" class="D"/><g class="B C"><circle cx="234.607" cy="199.816" r="57.951"/><path d="M280.771 199.816c0-25.496-20.669-46.164-46.164-46.164" class="E"/></g><g class="D"><use href="#B"/><use href="#C"/></g><g class="B C"><use href="#B"/><use href="#C"/></g><path d="M470.011 98.648a10.48 10.48 0 0 0-10.477 10.477c0 .528-.411.982-.938.982h-21.653c-5.967 0-10.805 4.837-10.805 10.805s4.838 10.804 10.805 10.804h37.324c5.967 0 10.804-4.837 10.804-10.804 0-.698.536-1.31 1.234-1.31h9.898a10.48 10.48 0 0 0 10.477-10.477 10.48 10.48 0 0 0-10.477-10.477h-26.192z" class="D G"/><path d="M461.498 109.125c0-4.701 3.811-8.512 8.513-8.512v-3.929c-6.872 0-12.442 5.57-12.442 12.441h3.929zm-24.555 2.947h21.653v-3.929h-21.653v3.929zm-8.84 8.84a8.84 8.84 0 0 1 8.84-8.84v-3.929a12.77 12.77 0 0 0-12.769 12.769h3.929zm8.84 8.839a8.84 8.84 0 0 1-8.84-8.839h-3.929a12.77 12.77 0 0 0 12.769 12.768v-3.929zm37.324 0h-37.324v3.929h37.324v-3.929zm8.84-8.839a8.84 8.84 0 0 1-8.84 8.839v3.929a12.77 12.77 0 0 0 12.769-12.768h-3.929zm13.096-3.274h-9.898v3.929h9.898v-3.929zm8.512-8.513c0 4.701-3.811 8.513-8.512 8.513v3.929c6.871 0 12.441-5.571 12.441-12.442h-3.929zm-8.512-8.512c4.701 0 8.512 3.811 8.512 8.512h3.929c0-6.871-5.57-12.441-12.441-12.441v3.929zm-26.192 0h26.192v-3.929h-26.192v3.929zm17.025 20.299c0 .151-.057.297-.165.414-.115.126-.316.241-.566.241v-3.929c-1.931 0-3.198 1.645-3.198 3.274h3.929zm-29.467-11.787a1 1 0 0 1 1.027-.982v3.929c1.727 0 2.902-1.453 2.902-2.947h-3.929z" class="F"/><path d="M506.68 253.838c-6.689-.589-12.161-13.555-12.161-17.68 0 4.125-7.904 17.091-13.377 17.68 5.473.589 12.161 10.019 13.377 17.68.608-7.661 5.472-17.091 12.161-17.68zm-29.467-27.502c-3.601-.327-6.548-7.53-6.548-9.822 0 2.292-4.256 9.495-7.203 9.822 2.947.327 6.549 5.566 7.203 9.822.328-4.256 2.947-9.495 6.548-9.822z" class="B C D H"/><path d="M45.217 236.477A10.48 10.48 0 0 1 55.694 226h26.192a10.48 10.48 0 0 1 10.477 10.477c0 .697.535 1.31 1.232 1.31h7.608c5.967 0 10.804 4.837 10.804 10.804s-4.837 10.804-10.804 10.804H69.143c-1.341 0-2.317 1.279-2.317 2.619a10.48 10.48 0 0 1-10.477 10.477H30.157a10.48 10.48 0 0 1-10.477-10.477c0-1.34-.976-2.619-2.317-2.619h-4.559C6.837 259.395 2 254.558 2 248.591s4.837-10.804 10.804-10.804h31.181c.697 0 1.232-.613 1.232-1.31z" class="D G"/><path d="M55.694 224.036c-6.871 0-12.441 5.57-12.441 12.441h3.929c0-4.701 3.811-8.513 8.512-8.513v-3.928zm26.192 0H55.694v3.928h26.192v-3.928zm12.441 12.441c0-6.871-5.57-12.441-12.441-12.441v3.928c4.701 0 8.512 3.812 8.512 8.513h3.929zm6.876-.655h-7.608v3.929h7.608v-3.929zm12.768 12.769a12.77 12.77 0 0 0-12.768-12.769v3.929a8.84 8.84 0 0 1 8.839 8.84h3.929zm-12.768 12.769a12.77 12.77 0 0 0 12.768-12.769h-3.929a8.84 8.84 0 0 1-8.839 8.84v3.929zm-32.061 0h32.061v-3.929H69.143v3.929zm-4.281.654c0 4.702-3.811 8.513-8.513 8.513v3.929c6.871 0 12.441-5.57 12.441-12.442h-3.929zm-8.513 8.513H30.157v3.929h26.192v-3.929zm-26.192 0c-4.701 0-8.512-3.811-8.512-8.513h-3.929c0 6.872 5.57 12.442 12.441 12.442v-3.929zm-17.352-9.167h4.559v-3.929h-4.559v3.929zM.036 248.591a12.77 12.77 0 0 0 12.769 12.769v-3.929a8.84 8.84 0 0 1-8.84-8.84H.036zm12.769-12.769A12.77 12.77 0 0 0 .036 248.591h3.929a8.84 8.84 0 0 1 8.84-8.84v-3.929zm31.181 0H12.804v3.929h31.181v-3.929zm0 3.929c1.935 0 3.196-1.651 3.196-3.274h-3.929c0-.151.056-.296.164-.413.115-.126.317-.242.569-.242v3.929zm-22.341 22.263c0-2.102-1.558-4.583-4.281-4.583v3.929c.005 0 .062-.007.161.11.11.13.192.335.192.544h3.929zm47.499-4.583c-2.723 0-4.281 2.481-4.281 4.583h3.929c0-.209.082-.414.192-.544.099-.117.156-.11.161-.11v-3.929zm21.256-20.954c0 1.623 1.262 3.274 3.196 3.274v-3.929c.252 0 .454.116.569.242.108.117.164.262.164.413h-3.929z" class="F"/><path d="M85.5 5C79.701 5 75 9.701 75 15.5c0 .794-.604 1.5-1.399 1.5H49.5C43.701 17 39 21.701 39 27.5S43.701 38 49.5 38h80c5.799 0 10.5-4.701 10.5-10.5S135.299 17 129.5 17h-7.101c-.795 0-1.399-.706-1.399-1.5C121 9.701 116.299 5 110.5 5h-25z" class="D G"/><path d="M76.964 15.5A8.54 8.54 0 0 1 85.5 6.964V3.036c-6.884 0-12.464 5.581-12.464 12.464h3.929zM49.5 18.964h24.101v-3.929H49.5v3.929zM40.964 27.5a8.54 8.54 0 0 1 8.536-8.536v-3.929c-6.884 0-12.464 5.58-12.464 12.464h3.929zm8.536 8.536a8.54 8.54 0 0 1-8.536-8.536h-3.929c0 6.884 5.581 12.464 12.464 12.464v-3.929zm80 0h-80v3.929h80v-3.929zm8.536-8.536a8.54 8.54 0 0 1-8.536 8.536v3.929c6.884 0 12.464-5.581 12.464-12.464h-3.928zm-8.536-8.536a8.54 8.54 0 0 1 8.536 8.536h3.928c0-6.884-5.58-12.464-12.464-12.464v3.929zm-7.101 0h7.101v-3.929h-7.101v3.929zm-11.899-12a8.54 8.54 0 0 1 8.536 8.536h3.928c0-6.884-5.58-12.464-12.464-12.464v3.929zm-25 0h25V3.036h-25v3.929zm36.899 8.071c.212 0 .374.1.457.192a.4.4 0 0 1 .108.273h-3.928c0 1.697 1.31 3.464 3.363 3.464v-3.929zm-49.363.464a.4.4 0 0 1 .109-.273c.083-.091.245-.192.457-.192v3.929c2.053 0 3.363-1.768 3.363-3.464h-3.929z" class="F"/><path d="M70.074 136.607l-2.708 1.354c-4.014-.328-6.561-5.163-3.825-8.741l.204-.268c1.681-2.198 4.809-2.653 7.046-1.025 3.091 2.247 2.7 6.971-.718 8.68z" class="D"/><path d="M55.964 143.662l14.11-7.055c3.418-1.709 3.809-6.433.718-8.68h0c-2.238-1.628-5.365-1.173-7.046 1.025l-.204.268c-3.137 4.103.671 9.859 5.674 8.576l23.09-5.921" class="B C E H"/><path d="M411.161 29.086l-.613-.906c-1.641-2.428-1.378-5.539.367-7.652l4.981.351c5.058.357 6.743 6.952 2.475 9.69a5.27 5.27 0 0 1-7.21-1.483z" class="D"/><path d="M422.031 14.104l-9.175 4.848a6.39 6.39 0 0 0-2.308 9.228l.613.906a5.27 5.27 0 0 0 7.21 1.483h0c4.268-2.738 2.583-9.334-2.475-9.69l-39.365-2.775M165.828 172.655l-22.784-6.799m28.647-5.044l-9.468-7.864m.294 32.649l-12.405.703" class="B C E H"/><defs ><path id="B" d="M284.991 426.41c-1.127.502-2.536.554-3.407-.326l-3.155-3.185c-.871-.879-.879-2.322.111-3.062 5.853-4.376 14.154-3.886 19.46 1.47s5.791 13.735 1.456 19.644c-.734 1-2.163.991-3.034.112l-3.155-3.185c-.871-.88-.82-2.302-.323-3.44.975-2.231.556-4.933-1.255-6.761a5.99 5.99 0 0 0-6.698-1.267z"/><path id="C" d="M270.733 428.535c.969-1.588 1.012-3.713-.294-5.033l-4.733-4.777c-1.307-1.319-3.446-1.33-4.587.138-8.529 10.964-7.788 26.881 2.221 36.985a27.49 27.49 0 0 0 36.638 2.242c1.453-1.152 1.443-3.311.136-4.631l-4.732-4.777c-1.307-1.319-3.412-1.276-4.986-.297-5.508 3.424-12.818 2.727-17.591-2.092s-5.464-12.198-2.072-17.758z"/></defs></svg>