<svg width="509" height="521" viewBox="0 0 509 521" fill="none" xmlns="http://www.w3.org/2000/svg">
<path d="M407.5 398.5L458.5 341C496.5 393.4 502.667 481.167 501 518.5H424C420.5 514 415 479 414 444C413.2 416 409.333 402 407.5 398.5Z" fill="#FFDDAD"/>
<path d="M453.64 336.344C470.011 351.404 502.358 408.831 500.787 518.053" stroke="#0E0E11" stroke-width="3.92885" stroke-linecap="round"/>
<path d="M403.547 388.401C420.245 414.921 408.458 468.943 424.174 519.036" stroke="#0E0E11" stroke-width="3.92885" stroke-linecap="round"/>
<path fill-rule="evenodd" clip-rule="evenodd" d="M345.597 245.98C376.045 260.059 441.461 298.234 463.462 338.308L405.512 405.099L395.69 387.419L412.387 521H134.421L170.763 378.579V362.864L113.794 310.806C131.147 293.454 174.299 256.195 208.087 245.98C213.325 262.678 232.053 297.055 265.055 300.984C306.308 305.895 342.65 279.375 345.597 245.98ZM282.735 485.64C308.773 485.64 329.881 464.532 329.881 438.494C329.881 412.456 308.773 391.348 282.735 391.348C256.697 391.348 235.589 412.456 235.589 438.494C235.589 464.532 256.697 485.64 282.735 485.64Z" fill="#FF2D55"/>
<path d="M349.526 189.994C351.49 185.083 354.437 179.19 361.312 177.225" stroke="#0E0E11" stroke-width="3.92885" stroke-linecap="round"/>
<path d="M311.219 231.247C306.636 242.706 291.379 266.017 267.02 267.589" stroke="#0E0E11" stroke-width="3.92885" stroke-linecap="round"/>
<path d="M308.273 224.372C308.273 226.991 310.237 232.229 318.095 234.194" stroke="#0E0E11" stroke-width="3.92885" stroke-linecap="round"/>
<path d="M208.087 239.105C212.671 263.66 235.785 310.217 291.575 300.002C347.365 289.787 353.455 230.92 349.526 202.763C356.074 204.072 369.563 202.763 371.134 187.047C373.099 167.403 361.312 160.528 352.472 165.439" stroke="#0E0E11" stroke-width="3.92885" stroke-linecap="round"/>
<path d="M236.571 257.767V269.553M226.749 257.767V272.5" stroke="#0E0E11" stroke-width="3.92885" stroke-linecap="round"/>
<circle cx="312.202" cy="187.047" r="5.89328" fill="#0E0E11"/>
<ellipse cx="346.361" cy="147.546" rx="26.8058" ry="19.6443" transform="rotate(-50.5947 346.361 147.546)" fill="#0E0E11"/>
<ellipse cx="325.639" cy="115.708" rx="38.6214" ry="28.3032" transform="rotate(-85.7034 325.639 115.708)" fill="#0E0E11"/>
<ellipse cx="296.082" cy="113.381" rx="50.3105" ry="39.4629" transform="rotate(-124.95 296.082 113.381)" fill="#0E0E11"/>
<ellipse cx="240.209" cy="96.0943" rx="76.1848" ry="55.831" transform="rotate(166.481 240.209 96.0943)" fill="#0E0E11"/>
<path d="M411.405 519.036L392.743 362.864" stroke="#0E0E11" stroke-width="3.92885" stroke-linecap="round"/>
<path d="M252.287 281.34C249.143 276.625 238.536 271.518 233.624 269.553C212.016 277.411 196.3 312.771 194.336 314.735C192.372 316.7 191.389 326.522 188.443 340.273C186.085 351.274 175.674 359.917 170.763 362.864L120.67 316.7C66.6482 368.757 60.7549 408.046 51.915 450.281C43.0751 492.516 69.5948 513.142 95.1324 509.214C120.67 505.285 135.403 496.445 154.065 478.765C172.727 461.085 188.443 433.583 196.3 411.974C204.158 390.366 212.016 382.508 214.962 379.561C217.909 376.615 218.891 379.561 224.785 376.615C229.499 374.257 235.916 361.882 238.536 355.988V350.095V340.273C242.137 341.91 250.911 343.612 257.198 337.326C263.484 331.04 264.401 322.92 264.073 319.646C262.109 318.009 258.18 314.146 258.18 311.789C258.18 309.431 256.215 302.949 255.233 300.002C254.251 299.347 252.679 297.448 254.251 295.091C256.215 292.144 256.215 287.233 252.287 281.34Z" fill="#FFDDAD"/>
<path fill-rule="evenodd" clip-rule="evenodd" d="M119.044 315.503C97.3741 334.02 53.7087 387.566 48.973 457.022C47.4735 479.016 53.3889 494.426 64.2494 503.177C75.0855 511.908 90.349 513.606 106.686 509.27C139.348 500.602 177.34 467.639 197.158 414.627C197.164 414.611 197.17 414.595 197.175 414.579C201.058 403.32 205.247 395.201 208.872 389.647C212.345 384.328 215.23 381.468 216.761 380.396C217.26 380.27 217.796 380.157 218.366 380.037L218.367 380.037C221.514 379.374 225.68 378.497 230.103 374.075C230.879 373.299 231.957 371.855 233.081 370.152C234.23 368.409 235.506 366.272 236.671 364.027C237.832 361.788 238.906 359.399 239.631 357.158C240.335 354.979 240.795 352.686 240.473 350.754C240.027 348.076 240.008 342.413 240.962 336.926C241.436 334.199 242.136 331.611 243.087 329.512C244.053 327.381 245.182 325.969 246.386 325.281C247.328 324.742 247.655 323.542 247.117 322.6C246.578 321.658 245.378 321.331 244.436 321.869C242.203 323.146 240.63 325.417 239.509 327.89C238.373 330.395 237.599 333.332 237.091 336.253C236.081 342.062 236.062 348.184 236.598 351.4C236.76 352.374 236.548 353.923 235.893 355.949C235.257 357.914 234.285 360.094 233.183 362.217C232.085 364.335 230.879 366.354 229.801 367.989C228.697 369.663 227.8 370.821 227.324 371.297C223.788 374.834 220.841 375.47 217.788 376.129L217.788 376.129C217.012 376.296 216.229 376.465 215.428 376.684C215.238 376.736 215.056 376.816 214.89 376.922C212.745 378.287 209.369 381.698 205.583 387.499C201.763 393.351 197.442 401.759 193.469 413.274C173.996 465.344 136.856 497.199 105.679 505.473C90.0939 509.609 76.2594 507.808 66.7144 500.118C57.1941 492.447 51.4457 478.514 52.8928 457.29C57.5602 388.834 100.92 335.984 121.939 318.199C121.959 318.182 121.979 318.165 121.999 318.147L119.044 315.503Z" fill="#0E0E11"/>
<path d="M236.571 304.913C239.845 307.532 247.376 312.771 256.215 313.753C264.064 314.625 266.038 322.593 263.091 327.504L256.92 337.378C254.728 340.884 250.576 342.642 246.533 341.776L239.518 340.273" stroke="#0E0E11" stroke-width="3.92885" stroke-linecap="round" stroke-linejoin="round"/>
<path d="M232.642 287.233C238.536 290.18 251.108 296.662 254.251 299.02C257.394 301.377 258.18 309.169 258.18 312.771" stroke="#0E0E11" stroke-width="3.92885" stroke-linecap="round" stroke-linejoin="round"/>
<path d="M253.269 296.073C254.906 293.454 257.394 287.233 254.251 283.304C250.322 278.393 242.464 273.482 236.571 270.535C223.422 263.961 193.978 310.991 192.372 320.628C191.389 326.521 189.179 350.095 176.656 358.934C159.959 370.721 138.35 390.365 129.51 410.992" stroke="#0E0E11" stroke-width="3.92885" stroke-linecap="round" stroke-linejoin="round"/>
<path d="M169.477 363.367C170.298 364.077 171.538 363.987 172.248 363.167C172.958 362.347 172.869 361.106 172.048 360.396L169.477 363.367ZM120.973 316.196L119.488 314.911L116.917 317.882L118.402 319.167L120.973 316.196ZM172.048 360.396L120.973 316.196L118.402 319.167L169.477 363.367L172.048 360.396Z" fill="#0E0E11"/>
<circle cx="234.607" cy="199.816" r="57.9506" fill="#FFDDAD"/>
<path d="M233.624 150.706C228.292 149.944 222.53 146.044 220.094 144.016C219.954 143.9 219.776 143.85 219.598 143.888C208.437 146.305 185.922 158.262 178.756 187.47C178.68 187.778 178.862 188.094 179.164 188.193C182.794 189.384 188.208 193.09 187.46 199.816C186.478 208.656 195.318 212.585 197.283 214.549C199.247 216.514 192.371 222.407 196.3 224.372C200.229 226.336 198.265 228.3 199.247 233.212C199.878 236.369 204.359 241.43 207.793 244.825C208.256 245.282 209.146 244.671 209.006 244.035C206.67 233.394 219.874 223.716 219.874 216.514C219.874 208.656 203.176 217.496 195.318 203.745C187.46 189.994 209.069 178.208 215.945 177.225C222.82 176.243 233.624 171.332 242.464 163.474C251.304 155.617 240.5 151.688 233.624 150.706Z" fill="white"/>
<path d="M259.162 169.368C263.684 168.614 270.376 161.775 273.515 158.04C273.727 157.788 274.094 157.749 274.341 157.966C282.818 165.417 297.172 185.802 290.848 211.585C290.74 212.026 290.173 212.188 289.76 211.997C287.83 211.107 285.161 212.585 281.753 212.585C277.824 212.585 275.86 210.621 273.895 207.674C271.931 204.727 267.02 201.781 268.002 193.923C268.984 186.065 259.162 182.136 257.198 180.172C255.233 178.208 253.269 170.35 259.162 169.368Z" fill="white"/>
<path d="M223.885 207.674C222.326 199.101 243.186 196.905 254.068 196.87C254.24 196.87 254.396 196.943 254.509 197.072C260.476 203.899 272.986 211.68 272.014 219.461C271.031 227.318 261.209 221.425 256.298 235.176C252.567 245.622 248.541 250.4 246.743 251.696C246.58 251.814 246.366 251.822 246.197 251.712C244.828 250.818 242.547 247.917 242.547 242.051C242.547 234.194 239.601 227.318 235.672 221.425C231.743 215.532 225.849 218.478 223.885 207.674Z" fill="white"/>
<circle cx="234.607" cy="199.816" r="57.9506" stroke="#0E0E11" stroke-width="3.92885"/>
<path d="M280.771 199.816C280.771 174.32 260.102 153.652 234.607 153.652" stroke="#0E0E11" stroke-width="3.92885" stroke-linecap="round"/>
<path d="M284.991 426.41C283.864 426.912 282.455 426.964 281.584 426.084L278.429 422.899C277.558 422.02 277.55 420.577 278.54 419.837C284.393 415.461 292.694 415.951 298 421.307C303.305 426.663 303.791 435.042 299.456 440.951C298.722 441.951 297.293 441.942 296.422 441.063L293.267 437.878C292.396 436.998 292.447 435.576 292.944 434.438C293.919 432.207 293.5 429.505 291.689 427.677C289.878 425.849 287.202 425.426 284.991 426.41Z" fill="white"/>
<path d="M270.733 428.535C271.702 426.947 271.745 424.822 270.439 423.502L265.706 418.725C264.399 417.406 262.26 417.395 261.119 418.863C252.59 429.827 253.331 445.744 263.34 455.848C273.349 465.952 289.117 466.7 299.978 458.09C301.431 456.938 301.421 454.779 300.114 453.459L295.382 448.682C294.075 447.363 291.97 447.406 290.396 448.385C284.888 451.809 277.578 451.112 272.805 446.293C268.032 441.474 267.341 434.095 270.733 428.535Z" fill="white"/>
<path d="M284.991 426.41C283.864 426.912 282.455 426.964 281.584 426.084L278.429 422.899C277.558 422.02 277.55 420.577 278.54 419.837C284.393 415.461 292.694 415.951 298 421.307C303.305 426.663 303.791 435.042 299.456 440.951C298.722 441.951 297.293 441.942 296.422 441.063L293.267 437.878C292.396 436.998 292.447 435.576 292.944 434.438C293.919 432.207 293.5 429.505 291.689 427.677C289.878 425.849 287.202 425.426 284.991 426.41Z" stroke="#0E0E11" stroke-width="3.92885"/>
<path d="M270.733 428.535C271.702 426.947 271.745 424.822 270.439 423.502L265.706 418.725C264.399 417.406 262.26 417.395 261.119 418.863C252.59 429.827 253.331 445.744 263.34 455.848C273.349 465.952 289.117 466.7 299.978 458.09C301.431 456.938 301.421 454.779 300.114 453.459L295.382 448.682C294.075 447.363 291.97 447.406 290.396 448.385C284.888 451.809 277.578 451.112 272.805 446.293C268.032 441.474 267.341 434.095 270.733 428.535Z" stroke="#0E0E11" stroke-width="3.92885"/>
<path fill-rule="evenodd" clip-rule="evenodd" d="M470.011 98.6482C464.224 98.6482 459.534 103.339 459.534 109.125C459.534 109.653 459.123 110.107 458.596 110.107H436.943C430.976 110.107 426.138 114.944 426.138 120.912C426.138 126.879 430.976 131.716 436.943 131.716H474.267C480.234 131.716 485.071 126.879 485.071 120.912C485.071 120.214 485.607 119.602 486.305 119.602H496.203C501.989 119.602 506.68 114.911 506.68 109.125C506.68 103.339 501.989 98.6482 496.203 98.6482H470.011Z" fill="white"/>
<path d="M461.498 109.125C461.498 104.424 465.309 100.613 470.011 100.613V96.6838C463.139 96.6838 457.569 102.254 457.569 109.125H461.498ZM436.943 112.072H458.596V108.143H436.943V112.072ZM428.103 120.912C428.103 116.029 432.061 112.072 436.943 112.072V108.143C429.891 108.143 424.174 113.86 424.174 120.912H428.103ZM436.943 129.751C432.061 129.751 428.103 125.794 428.103 120.912H424.174C424.174 127.964 429.891 133.68 436.943 133.68V129.751ZM474.267 129.751H436.943V133.68H474.267V129.751ZM483.107 120.912C483.107 125.794 479.149 129.751 474.267 129.751V133.68C481.319 133.68 487.036 127.964 487.036 120.912H483.107ZM496.203 117.638H486.305V121.567H496.203V117.638ZM504.715 109.125C504.715 113.826 500.904 117.638 496.203 117.638V121.567C503.074 121.567 508.644 115.996 508.644 109.125H504.715ZM496.203 100.613C500.904 100.613 504.715 104.424 504.715 109.125H508.644C508.644 102.254 503.074 96.6838 496.203 96.6838V100.613ZM470.011 100.613H496.203V96.6838H470.011V100.613ZM487.036 120.912C487.036 121.063 486.979 121.209 486.871 121.326C486.756 121.452 486.555 121.567 486.305 121.567V117.638C484.374 117.638 483.107 119.283 483.107 120.912H487.036ZM457.569 109.125C457.569 108.687 457.923 108.143 458.596 108.143V112.072C460.323 112.072 461.498 110.619 461.498 109.125H457.569Z" fill="#0E0E11"/>
<path d="M506.68 253.838C499.991 253.249 494.519 240.283 494.519 236.158C494.519 240.283 486.615 253.249 481.142 253.838C486.615 254.427 493.303 263.857 494.519 271.518C495.127 263.857 499.991 254.427 506.68 253.838Z" fill="white" stroke="#0E0E11" stroke-width="3.92885" stroke-linecap="round" stroke-linejoin="round"/>
<path d="M477.213 226.336C473.612 226.009 470.665 218.806 470.665 216.514C470.665 218.806 466.409 226.009 463.462 226.336C466.409 226.663 470.011 231.902 470.665 236.158C470.993 231.902 473.612 226.663 477.213 226.336Z" fill="white" stroke="#0E0E11" stroke-width="3.92885" stroke-linecap="round" stroke-linejoin="round"/>
<path fill-rule="evenodd" clip-rule="evenodd" d="M45.2174 236.477C45.2174 230.691 49.9081 226 55.6943 226H81.8867C87.673 226 92.3636 230.691 92.3636 236.477C92.3636 237.174 92.8983 237.787 93.5955 237.787H101.204C107.171 237.787 112.008 242.624 112.008 248.591C112.008 254.558 107.171 259.395 101.204 259.395H69.143C67.8022 259.395 66.8261 260.674 66.8261 262.014C66.8261 267.801 62.1354 272.491 56.3491 272.491H30.1568C24.3705 272.491 19.6798 267.801 19.6798 262.014C19.6798 260.674 18.7038 259.395 17.363 259.395H12.8044C6.83728 259.395 2 254.558 2 248.591C2 242.624 6.83727 237.787 12.8044 237.787H43.9855C44.6827 237.787 45.2174 237.174 45.2174 236.477Z" fill="white"/>
<path d="M55.6943 224.036C48.8232 224.036 43.253 229.606 43.253 236.477H47.1818C47.1818 231.776 50.993 227.964 55.6943 227.964V224.036ZM81.8867 224.036H55.6943V227.964H81.8867V224.036ZM94.3281 236.477C94.3281 229.606 88.7579 224.036 81.8867 224.036V227.964C86.588 227.964 90.3992 231.776 90.3992 236.477H94.3281ZM101.204 235.822H93.5955V239.751H101.204V235.822ZM113.972 248.591C113.972 241.539 108.256 235.822 101.204 235.822V239.751C106.086 239.751 110.043 243.709 110.043 248.591H113.972ZM101.204 261.36C108.256 261.36 113.972 255.643 113.972 248.591H110.043C110.043 253.473 106.086 257.431 101.204 257.431V261.36ZM69.143 261.36H101.204V257.431H69.143V261.36ZM64.8617 262.014C64.8617 266.716 61.0505 270.527 56.3491 270.527V274.456C63.2203 274.456 68.7905 268.886 68.7905 262.014H64.8617ZM56.3491 270.527H30.1568V274.456H56.3491V270.527ZM30.1568 270.527C25.4555 270.527 21.6443 266.716 21.6443 262.014H17.7154C17.7154 268.886 23.2856 274.456 30.1568 274.456V270.527ZM12.8044 261.36H17.363V257.431H12.8044V261.36ZM0.0355731 248.591C0.0355731 255.643 5.75236 261.36 12.8044 261.36V257.431C7.9222 257.431 3.96443 253.473 3.96443 248.591H0.0355731ZM12.8044 235.822C5.75235 235.822 0.0355731 241.539 0.0355731 248.591H3.96443C3.96443 243.709 7.9222 239.751 12.8044 239.751V235.822ZM43.9855 235.822H12.8044V239.751H43.9855V235.822ZM43.9855 239.751C45.9203 239.751 47.1818 238.1 47.1818 236.477H43.253C43.253 236.326 43.3088 236.181 43.4166 236.064C43.5319 235.938 43.7334 235.822 43.9855 235.822V239.751ZM21.6443 262.014C21.6443 259.912 20.0861 257.431 17.363 257.431V261.36C17.3679 261.36 17.4252 261.353 17.5236 261.47C17.6338 261.6 17.7154 261.805 17.7154 262.014H21.6443ZM69.143 257.431C66.4198 257.431 64.8617 259.912 64.8617 262.014H68.7905C68.7905 261.805 68.8722 261.6 68.9823 261.47C69.0808 261.353 69.138 261.36 69.143 261.36V257.431ZM90.3992 236.477C90.3992 238.1 91.6607 239.751 93.5955 239.751V235.822C93.8476 235.822 94.0492 235.938 94.1644 236.064C94.2723 236.181 94.3281 236.326 94.3281 236.477H90.3992Z" fill="#0E0E11"/>
<path fill-rule="evenodd" clip-rule="evenodd" d="M85.5 5C79.701 5 75 9.70101 75 15.5C75 16.2943 74.3956 17 73.6013 17H49.5C43.701 17 39 21.701 39 27.5C39 33.299 43.701 38 49.5 38H129.5C135.299 38 140 33.299 140 27.5C140 21.701 135.299 17 129.5 17H122.399C121.604 17 121 16.2943 121 15.5C121 9.70101 116.299 5 110.5 5H85.5Z" fill="white"/>
<path d="M76.9644 15.5C76.9644 10.7859 80.7859 6.96443 85.5 6.96443V3.03557C78.6161 3.03557 73.0356 8.61609 73.0356 15.5H76.9644ZM49.5 18.9644H73.6013V15.0356H49.5V18.9644ZM40.9644 27.5C40.9644 22.7859 44.7859 18.9644 49.5 18.9644V15.0356C42.6161 15.0356 37.0356 20.6161 37.0356 27.5H40.9644ZM49.5 36.0356C44.7859 36.0356 40.9644 32.2141 40.9644 27.5H37.0356C37.0356 34.3839 42.6161 39.9644 49.5 39.9644V36.0356ZM129.5 36.0356H49.5V39.9644H129.5V36.0356ZM138.036 27.5C138.036 32.2141 134.214 36.0356 129.5 36.0356V39.9644C136.384 39.9644 141.964 34.3839 141.964 27.5H138.036ZM129.5 18.9644C134.214 18.9644 138.036 22.7859 138.036 27.5H141.964C141.964 20.6161 136.384 15.0356 129.5 15.0356V18.9644ZM122.399 18.9644H129.5V15.0356H122.399V18.9644ZM110.5 6.96443C115.214 6.96443 119.036 10.7859 119.036 15.5H122.964C122.964 8.61609 117.384 3.03557 110.5 3.03557V6.96443ZM85.5 6.96443H110.5V3.03557H85.5V6.96443ZM122.399 15.0356C122.611 15.0356 122.773 15.136 122.856 15.2272C122.93 15.3093 122.964 15.4038 122.964 15.5H119.036C119.036 17.1968 120.346 18.9644 122.399 18.9644V15.0356ZM73.0356 15.5C73.0356 15.4038 73.0697 15.3093 73.1443 15.2272C73.227 15.136 73.3889 15.0356 73.6013 15.0356V18.9644C75.6543 18.9644 76.9644 17.1968 76.9644 15.5H73.0356Z" fill="#0E0E11"/>
<path d="M70.0743 136.607L67.3664 137.961C63.3521 137.633 60.8058 132.798 63.5419 129.22L63.7463 128.952C65.4272 126.754 68.5549 126.299 70.7927 127.927C73.8834 130.174 73.4925 134.898 70.0743 136.607Z" fill="white"/>
<path d="M55.9644 143.662L70.0743 136.607C73.4925 134.898 73.8834 130.174 70.7927 127.927V127.927C68.5549 126.299 65.4272 126.754 63.7463 128.952L63.5419 129.22C60.4045 133.323 64.2128 139.079 69.2159 137.796L92.3063 131.875" stroke="#0E0E11" stroke-width="3.92885" stroke-linecap="round" stroke-linejoin="round"/>
<path d="M411.161 29.0864L410.548 28.1803C408.907 25.7526 409.17 22.641 410.915 20.5284L415.896 20.8795C420.954 21.2361 422.639 27.8316 418.371 30.5698C415.963 32.1145 412.763 31.4561 411.161 29.0864Z" fill="white"/>
<path d="M422.031 14.1044L412.856 18.9526C409.494 20.729 408.419 25.0304 410.548 28.1803L411.161 29.0864C412.763 31.4561 415.963 32.1145 418.371 30.5698V30.5698C422.639 27.8316 420.954 21.2361 415.896 20.8795L376.531 18.1044" stroke="#0E0E11" stroke-width="3.92885" stroke-linecap="round" stroke-linejoin="round"/>
<path d="M165.828 172.655L143.044 165.856M171.691 160.812L162.223 152.948M162.517 185.597L150.112 186.3" stroke="#0E0E11" stroke-width="3.92885" stroke-linecap="round" stroke-linejoin="round"/>
</svg>
