<?xml version="1.0" standalone="no"?>
<!DOCTYPE svg PUBLIC "-//W3C//DTD SVG 20010904//EN"
 "http://www.w3.org/TR/2001/REC-SVG-20010904/DTD/svg10.dtd">
<svg version="1.0" xmlns="http://www.w3.org/2000/svg"
 width="135.000000pt" height="135.000000pt" viewBox="0 0 135.000000 135.000000"
 preserveAspectRatio="xMidYMid meet">
<metadata>
Created by potrace 1.14, written by Peter Selinger 2001-2017
</metadata>
<g transform="translate(0.000000,135.000000) scale(0.100000,-0.100000)"
fill="#000000" stroke="none">
<path d="M555 1340 c-233 -46 -435 -225 -512 -454 l-28 -81 0 -310 c0 -343 -1
-338 68 -409 68 -69 77 -71 417 -71 295 0 307 1 375 24 118 40 185 81 271 166
141 139 199 278 198 475 0 132 -18 207 -71 310 -84 160 -222 275 -398 330 -76
24 -246 34 -320 20z"/>
</g>
</svg>
